<svg width="100%" viewBox="230 228 364 52" version="1.1" xmlns="http://www.w3.org/2000/svg" xmlns:xlink="http://www.w3.org/1999/xlink">
  <title style="fill:rgb(0, 0, 0);stroke:none;color:rgb(0, 0, 0);stroke-width:1px;stroke-linecap:butt;stroke-linejoin:miter;opacity:1;font-family:&quot;Anthropic Sans&quot;, -apple-system, &quot;system-ui&quot;, &quot;Segoe UI&quot;, sans-serif;font-size:16px;font-weight:400;text-anchor:start;dominant-baseline:auto">Intimate Wine</title>
  <path stroke-linecap="butt" transform="matrix(0, -0.749524, 0.749524, 0, 243.598415, 279.055424)" fill="none" stroke-linejoin="miter" d="M 0.000982773 0.499305 L 22.13482 0.499305 " stroke="#6c1e20" stroke-width="1" stroke-opacity="1" stroke-miterlimit="4" style="fill:none;stroke:rgb(108, 30, 32);color:rgb(0, 0, 0);stroke-width:1px;stroke-linecap:butt;stroke-linejoin:miter;opacity:1;font-family:&quot;Anthropic Sans&quot;, -apple-system, &quot;system-ui&quot;, &quot;Segoe UI&quot;, sans-serif;font-size:16px;font-weight:400;text-anchor:start;dominant-baseline:auto"/>
  <g fill="#000000" fill-opacity="1" fill-rule="nonzero" style="fill:rgb(0, 0, 0);stroke:none;color:rgb(0, 0, 0);stroke-width:1px;stroke-linecap:butt;stroke-linejoin:miter;opacity:1;font-family:&quot;Anthropic Sans&quot;, -apple-system, &quot;system-ui&quot;, &quot;Segoe UI&quot;, sans-serif;font-size:16px;font-weight:400;text-anchor:start;dominant-baseline:auto">
    <g transform="matrix(1, 0, 0, 1, 259, 222)" style="fill:rgb(0, 0, 0);stroke:none;color:rgb(0, 0, 0);stroke-width:1px;stroke-linecap:butt;stroke-linejoin:miter;opacity:1;font-family:&quot;Anthropic Sans&quot;, -apple-system, &quot;system-ui&quot;, &quot;Segoe UI&quot;, sans-serif;font-size:16px;font-weight:400;text-anchor:start;dominant-baseline:auto">
      <g transform="translate(0.542378, 39.25413)" style="fill:rgb(0, 0, 0);stroke:none;color:rgb(0, 0, 0);stroke-width:1px;stroke-linecap:butt;stroke-linejoin:miter;opacity:1;font-family:&quot;Anthropic Sans&quot;, -apple-system, &quot;system-ui&quot;, &quot;Segoe UI&quot;, sans-serif;font-size:16px;font-weight:400;text-anchor:start;dominant-baseline:auto">
        <path d="M 9.96875 -5.09375 C 9.96875 -4.101562 10.054688 -3.367188 10.234375 -2.890625 C 10.410156 -2.421875 10.648438 -2.109375 10.953125 -1.953125 C 11.265625 -1.796875 11.753906 -1.660156 12.421875 -1.546875 C 13.191406 -1.421875 13.878906 -1.25 14.484375 -1.03125 L 14.4375 0 L 1.40625 0 L 1.40625 -1.015625 C 1.789062 -1.191406 2.132812 -1.3125 2.4375 -1.375 C 2.75 -1.445312 3.140625 -1.523438 3.609375 -1.609375 C 4.191406 -1.679688 4.617188 -1.789062 4.890625 -1.9375 C 5.171875 -2.09375 5.382812 -2.429688 5.53125 -2.953125 C 5.6875 -3.472656 5.765625 -4.304688 5.765625 -5.453125 L 5.765625 -20.1875 C 5.765625 -21.25 5.671875 -22.035156 5.484375 -22.546875 C 5.304688 -23.054688 5.066406 -23.382812 4.765625 -23.53125 C 4.472656 -23.675781 4.039062 -23.785156 3.46875 -23.859375 C 3 -23.941406 2.609375 -24.019531 2.296875 -24.09375 C 1.992188 -24.175781 1.671875 -24.316406 1.328125 -24.515625 L 1.375 -25.515625 L 14.359375 -25.515625 L 14.40625 -24.484375 C 14.125 -24.378906 13.726562 -24.269531 13.21875 -24.15625 C 12.5 -23.976562 11.925781 -23.796875 11.5 -23.609375 C 11.070312 -23.421875 10.707031 -23.132812 10.40625 -22.75 C 10.113281 -22.363281 9.96875 -21.835938 9.96875 -21.171875 Z M 9.96875 -5.09375 " style="fill:rgb(0, 0, 0);stroke:none;color:rgb(0, 0, 0);stroke-width:1px;stroke-linecap:butt;stroke-linejoin:miter;opacity:1;font-family:&quot;Anthropic Sans&quot;, -apple-system, &quot;system-ui&quot;, &quot;Segoe UI&quot;, sans-serif;font-size:16px;font-weight:400;text-anchor:start;dominant-baseline:auto"/>
      </g>
      <g transform="translate(16.34966, 39.25413)" style="fill:rgb(0, 0, 0);stroke:none;color:rgb(0, 0, 0);stroke-width:1px;stroke-linecap:butt;stroke-linejoin:miter;opacity:1;font-family:&quot;Anthropic Sans&quot;, -apple-system, &quot;system-ui&quot;, &quot;Segoe UI&quot;, sans-serif;font-size:16px;font-weight:400;text-anchor:start;dominant-baseline:auto">
        <path d="M 6.328125 -21.375 C 5.984375 -21.925781 5.628906 -22.363281 5.265625 -22.6875 C 4.898438 -23.007812 4.535156 -23.253906 4.171875 -23.421875 C 3.804688 -23.597656 3.316406 -23.789062 2.703125 -24 C 2.117188 -24.195312 1.660156 -24.359375 1.328125 -24.484375 L 1.328125 -25.515625 L 8.171875 -25.515625 L 26.609375 -6.453125 L 26.609375 -18.765625 C 26.609375 -20.003906 26.429688 -21.132812 26.078125 -22.15625 C 25.929688 -22.570312 25.734375 -22.894531 25.484375 -23.125 C 25.242188 -23.363281 24.976562 -23.535156 24.6875 -23.640625 C 24.394531 -23.742188 24.007812 -23.859375 23.53125 -23.984375 C 23.445312 -24.003906 23.242188 -24.054688 22.921875 -24.140625 C 22.609375 -24.234375 22.320312 -24.34375 22.0625 -24.46875 C 22.0625 -24.8125 22.082031 -25.160156 22.125 -25.515625 L 32.4375 -25.515625 L 32.4375 -24.453125 C 32.070312 -24.285156 31.695312 -24.125 31.3125 -23.96875 C 30.351562 -23.539062 29.691406 -23.191406 29.328125 -22.921875 C 28.960938 -22.648438 28.703125 -22.222656 28.546875 -21.640625 C 28.398438 -21.054688 28.320312 -20.101562 28.3125 -18.78125 C 28.3125 -18.125 28.296875 -17.140625 28.265625 -15.828125 C 28.253906 -14.835938 28.242188 -13.597656 28.234375 -12.109375 C 28.222656 -10.628906 28.21875 -8.898438 28.21875 -6.921875 C 28.21875 -6.054688 28.296875 -4.773438 28.453125 -3.078125 C 28.578125 -1.640625 28.644531 -0.554688 28.65625 0.171875 C 28.414062 0.265625 28.097656 0.3125 27.703125 0.3125 C 27.285156 0.3125 26.914062 0.265625 26.59375 0.171875 C 25.644531 -0.972656 24.570312 -2.191406 23.375 -3.484375 L 7.890625 -19.765625 L 7.890625 -6.015625 C 7.890625 -5.140625 8.003906 -4.257812 8.234375 -3.375 C 8.335938 -2.925781 8.523438 -2.582031 8.796875 -2.34375 C 9.066406 -2.101562 9.363281 -1.929688 9.6875 -1.828125 C 10.007812 -1.722656 10.441406 -1.617188 10.984375 -1.515625 C 11.742188 -1.390625 12.304688 -1.226562 12.671875 -1.03125 C 12.671875 -0.695312 12.65625 -0.351562 12.625 0 L 1.5625 0 C 1.539062 -0.238281 1.53125 -0.59375 1.53125 -1.0625 L 2.421875 -1.296875 C 3.265625 -1.503906 3.929688 -1.703125 4.421875 -1.890625 C 4.910156 -2.085938 5.332031 -2.410156 5.6875 -2.859375 C 6.050781 -3.304688 6.265625 -3.914062 6.328125 -4.6875 Z M 6.328125 -21.375 " style="fill:rgb(0, 0, 0);stroke:none;color:rgb(0, 0, 0);stroke-width:1px;stroke-linecap:butt;stroke-linejoin:miter;opacity:1;font-family:&quot;Anthropic Sans&quot;, -apple-system, &quot;system-ui&quot;, &quot;Segoe UI&quot;, sans-serif;font-size:16px;font-weight:400;text-anchor:start;dominant-baseline:auto"/>
      </g>
      <g transform="translate(50.118873, 39.25413)" style="fill:rgb(0, 0, 0);stroke:none;color:rgb(0, 0, 0);stroke-width:1px;stroke-linecap:butt;stroke-linejoin:miter;opacity:1;font-family:&quot;Anthropic Sans&quot;, -apple-system, &quot;system-ui&quot;, &quot;Segoe UI&quot;, sans-serif;font-size:16px;font-weight:400;text-anchor:start;dominant-baseline:auto">
        <path d="M 8.625 -24.0625 C 7.414062 -24.0625 6.460938 -24.007812 5.765625 -23.90625 C 5.304688 -23.832031 4.890625 -23.644531 4.515625 -23.34375 C 4.140625 -23.050781 3.816406 -22.710938 3.546875 -22.328125 C 3.285156 -21.953125 2.96875 -21.445312 2.59375 -20.8125 C 2.195312 -20.113281 1.851562 -19.585938 1.5625 -19.234375 L 0.671875 -19.234375 L 1.15625 -25.625 C 3.3125 -25.53125 6.09375 -25.484375 9.5 -25.484375 L 17.140625 -25.515625 L 19.703125 -25.515625 C 22.347656 -25.515625 24.484375 -25.566406 26.109375 -25.671875 L 26.75 -19.21875 L 25.796875 -19.21875 C 25.609375 -19.457031 25.40625 -19.753906 25.1875 -20.109375 C 24.976562 -20.472656 24.84375 -20.707031 24.78125 -20.8125 C 24.257812 -21.738281 23.773438 -22.460938 23.328125 -22.984375 C 22.878906 -23.503906 22.347656 -23.8125 21.734375 -23.90625 C 21.285156 -23.96875 20.832031 -24.007812 20.375 -24.03125 C 19.925781 -24.050781 19.363281 -24.0625 18.6875 -24.0625 L 15.6875 -24.0625 L 15.6875 -4.71875 C 15.6875 -3.71875 15.859375 -2.972656 16.203125 -2.484375 C 16.554688 -1.992188 17.015625 -1.660156 17.578125 -1.484375 C 18.148438 -1.316406 19 -1.160156 20.125 -1.015625 C 20.125 -0.554688 20.109375 -0.21875 20.078125 0 L 7.109375 0 L 7.078125 -1.015625 C 7.296875 -1.097656 7.640625 -1.203125 8.109375 -1.328125 C 8.878906 -1.566406 9.484375 -1.789062 9.921875 -2 C 10.367188 -2.207031 10.738281 -2.523438 11.03125 -2.953125 C 11.332031 -3.390625 11.484375 -3.976562 11.484375 -4.71875 L 11.484375 -24.0625 Z M 8.625 -24.0625 " style="fill:rgb(0, 0, 0);stroke:none;color:rgb(0, 0, 0);stroke-width:1px;stroke-linecap:butt;stroke-linejoin:miter;opacity:1;font-family:&quot;Anthropic Sans&quot;, -apple-system, &quot;system-ui&quot;, &quot;Segoe UI&quot;, sans-serif;font-size:16px;font-weight:400;text-anchor:start;dominant-baseline:auto"/>
      </g>
      <g transform="translate(77.44373, 39.25413)" style="fill:rgb(0, 0, 0);stroke:none;color:rgb(0, 0, 0);stroke-width:1px;stroke-linecap:butt;stroke-linejoin:miter;opacity:1;font-family:&quot;Anthropic Sans&quot;, -apple-system, &quot;system-ui&quot;, &quot;Segoe UI&quot;, sans-serif;font-size:16px;font-weight:400;text-anchor:start;dominant-baseline:auto">
        <path d="M 9.96875 -5.09375 C 9.96875 -4.101562 10.054688 -3.367188 10.234375 -2.890625 C 10.410156 -2.421875 10.648438 -2.109375 10.953125 -1.953125 C 11.265625 -1.796875 11.753906 -1.660156 12.421875 -1.546875 C 13.191406 -1.421875 13.878906 -1.25 14.484375 -1.03125 L 14.4375 0 L 1.40625 0 L 1.40625 -1.015625 C 1.789062 -1.191406 2.132812 -1.3125 2.4375 -1.375 C 2.75 -1.445312 3.140625 -1.523438 3.609375 -1.609375 C 4.191406 -1.679688 4.617188 -1.789062 4.890625 -1.9375 C 5.171875 -2.09375 5.382812 -2.429688 5.53125 -2.953125 C 5.6875 -3.472656 5.765625 -4.304688 5.765625 -5.453125 L 5.765625 -20.1875 C 5.765625 -21.25 5.671875 -22.035156 5.484375 -22.546875 C 5.304688 -23.054688 5.066406 -23.382812 4.765625 -23.53125 C 4.472656 -23.675781 4.039062 -23.785156 3.46875 -23.859375 C 3 -23.941406 2.609375 -24.019531 2.296875 -24.09375 C 1.992188 -24.175781 1.671875 -24.316406 1.328125 -24.515625 L 1.375 -25.515625 L 14.359375 -25.515625 L 14.40625 -24.484375 C 14.125 -24.378906 13.726562 -24.269531 13.21875 -24.15625 C 12.5 -23.976562 11.925781 -23.796875 11.5 -23.609375 C 11.070312 -23.421875 10.707031 -23.132812 10.40625 -22.75 C 10.113281 -22.363281 9.96875 -21.835938 9.96875 -21.171875 Z M 9.96875 -5.09375 " style="fill:rgb(0, 0, 0);stroke:none;color:rgb(0, 0, 0);stroke-width:1px;stroke-linecap:butt;stroke-linejoin:miter;opacity:1;font-family:&quot;Anthropic Sans&quot;, -apple-system, &quot;system-ui&quot;, &quot;Segoe UI&quot;, sans-serif;font-size:16px;font-weight:400;text-anchor:start;dominant-baseline:auto"/>
      </g>
      <g transform="translate(93.251012, 39.25413)" style="fill:rgb(0, 0, 0);stroke:none;color:rgb(0, 0, 0);stroke-width:1px;stroke-linecap:butt;stroke-linejoin:miter;opacity:1;font-family:&quot;Anthropic Sans&quot;, -apple-system, &quot;system-ui&quot;, &quot;Segoe UI&quot;, sans-serif;font-size:16px;font-weight:400;text-anchor:start;dominant-baseline:auto">
        <path d="M 32.875 -5.3125 C 32.988281 -3.976562 33.351562 -2.972656 33.96875 -2.296875 C 34.070312 -1.992188 34.273438 -1.785156 34.578125 -1.671875 C 34.878906 -1.566406 35.289062 -1.476562 35.8125 -1.40625 C 36.207031 -1.351562 36.5 -1.300781 36.6875 -1.25 C 36.882812 -1.207031 37.054688 -1.128906 37.203125 -1.015625 L 37.171875 0 L 24.953125 0 L 24.921875 -1.015625 L 25.53125 -1.21875 C 26.21875 -1.4375 26.769531 -1.640625 27.1875 -1.828125 C 27.613281 -2.015625 27.972656 -2.296875 28.265625 -2.671875 C 28.566406 -3.046875 28.71875 -3.535156 28.71875 -4.140625 L 27.5 -20.921875 L 20.015625 -4.015625 C 19.566406 -2.984375 19.09375 -1.644531 18.59375 0 L 17.046875 0 C 16.503906 -1.195312 15.609375 -3.070312 14.359375 -5.625 C 12.710938 -9.039062 11.398438 -11.8125 10.421875 -13.9375 C 9.441406 -16.0625 8.546875 -18.132812 7.734375 -20.15625 C 7.648438 -19.050781 7.488281 -17.46875 7.25 -15.40625 C 6.988281 -13 6.789062 -10.984375 6.65625 -9.359375 C 6.53125 -7.742188 6.46875 -6.140625 6.46875 -4.546875 C 6.46875 -3.835938 6.597656 -3.273438 6.859375 -2.859375 C 7.117188 -2.453125 7.445312 -2.144531 7.84375 -1.9375 C 8.238281 -1.726562 8.796875 -1.5 9.515625 -1.25 L 10.203125 -1.015625 L 10.171875 0 L 0.6875 0 L 0.640625 -1.015625 C 0.742188 -1.054688 1.09375 -1.179688 1.6875 -1.390625 C 2.3125 -1.597656 2.804688 -1.796875 3.171875 -1.984375 C 3.535156 -2.171875 3.851562 -2.445312 4.125 -2.8125 C 4.394531 -3.1875 4.5625 -3.6875 4.625 -4.3125 L 6.109375 -18.96875 C 6.203125 -19.90625 6.25 -20.738281 6.25 -21.46875 C 6.25 -22.019531 6.144531 -22.457031 5.9375 -22.78125 C 5.738281 -23.113281 5.484375 -23.359375 5.171875 -23.515625 C 4.859375 -23.671875 4.441406 -23.832031 3.921875 -24 C 3.367188 -24.164062 2.9375 -24.335938 2.625 -24.515625 L 2.671875 -25.515625 L 10.28125 -25.515625 C 10.53125 -24.453125 10.789062 -23.5 11.0625 -22.65625 C 11.332031 -21.8125 11.640625 -21.015625 11.984375 -20.265625 L 19.046875 -5.234375 L 26.03125 -21.171875 C 26.375 -21.941406 26.617188 -22.703125 26.765625 -23.453125 C 26.910156 -24.210938 26.984375 -24.898438 26.984375 -25.515625 L 35.09375 -25.515625 L 35.09375 -24.484375 L 34.734375 -24.375 C 34.003906 -24.125 33.425781 -23.894531 33 -23.6875 C 32.570312 -23.476562 32.207031 -23.171875 31.90625 -22.765625 C 31.613281 -22.359375 31.46875 -21.835938 31.46875 -21.203125 Z M 32.875 -5.3125 " style="fill:rgb(0, 0, 0);stroke:none;color:rgb(0, 0, 0);stroke-width:1px;stroke-linecap:butt;stroke-linejoin:miter;opacity:1;font-family:&quot;Anthropic Sans&quot;, -apple-system, &quot;system-ui&quot;, &quot;Segoe UI&quot;, sans-serif;font-size:16px;font-weight:400;text-anchor:start;dominant-baseline:auto"/>
      </g>
      <g transform="translate(130.957356, 39.25413)" style="fill:rgb(0, 0, 0);stroke:none;color:rgb(0, 0, 0);stroke-width:1px;stroke-linecap:butt;stroke-linejoin:miter;opacity:1;font-family:&quot;Anthropic Sans&quot;, -apple-system, &quot;system-ui&quot;, &quot;Segoe UI&quot;, sans-serif;font-size:16px;font-weight:400;text-anchor:start;dominant-baseline:auto">
        <path d="M 7.765625 -10.421875 L 7.390625 -9.484375 C 6.796875 -7.953125 6.328125 -6.691406 5.984375 -5.703125 C 5.648438 -4.722656 5.484375 -3.960938 5.484375 -3.421875 C 5.484375 -2.953125 5.65625 -2.566406 6 -2.265625 C 6.351562 -1.972656 6.753906 -1.753906 7.203125 -1.609375 C 7.648438 -1.460938 8.203125 -1.320312 8.859375 -1.1875 L 9.234375 -1.109375 L 9.234375 0 L -0.015625 0 L -0.015625 -1.015625 C 0.160156 -1.160156 0.34375 -1.28125 0.53125 -1.375 C 0.726562 -1.476562 0.96875 -1.585938 1.25 -1.703125 C 1.707031 -1.890625 2.078125 -2.078125 2.359375 -2.265625 C 2.640625 -2.460938 2.890625 -2.769531 3.109375 -3.1875 C 3.242188 -3.445312 3.378906 -3.742188 3.515625 -4.078125 C 3.648438 -4.410156 3.738281 -4.628906 3.78125 -4.734375 L 4.015625 -5.34375 L 11.34375 -24.125 C 11.394531 -24.257812 11.4375 -24.503906 11.46875 -24.859375 C 11.476562 -25.117188 11.5 -25.332031 11.53125 -25.5 C 11.5625 -25.664062 11.625 -25.8125 11.71875 -25.9375 C 12.351562 -25.9375 12.898438 -25.867188 13.359375 -25.734375 C 13.828125 -25.609375 14.296875 -25.367188 14.765625 -25.015625 L 23.765625 -3.453125 C 23.929688 -3.046875 24.125 -2.71875 24.34375 -2.46875 C 24.570312 -2.226562 24.804688 -2.046875 25.046875 -1.921875 C 25.285156 -1.804688 25.613281 -1.660156 26.03125 -1.484375 C 26.382812 -1.367188 26.757812 -1.210938 27.15625 -1.015625 L 27.109375 0 L 15.71875 0 L 15.671875 -1.015625 C 16.285156 -1.203125 16.8125 -1.382812 17.25 -1.5625 C 17.6875 -1.75 18.082031 -2.003906 18.4375 -2.328125 C 18.789062 -2.660156 18.96875 -3.0625 18.96875 -3.53125 C 18.96875 -4.050781 18.3125 -5.988281 17 -9.34375 C 16.925781 -9.539062 16.851562 -9.726562 16.78125 -9.90625 C 16.707031 -10.09375 16.644531 -10.265625 16.59375 -10.421875 Z M 12.015625 -21.78125 L 8.421875 -12.140625 L 15.875 -12.140625 Z M 12.015625 -21.78125 " style="fill:rgb(0, 0, 0);stroke:none;color:rgb(0, 0, 0);stroke-width:1px;stroke-linecap:butt;stroke-linejoin:miter;opacity:1;font-family:&quot;Anthropic Sans&quot;, -apple-system, &quot;system-ui&quot;, &quot;Segoe UI&quot;, sans-serif;font-size:16px;font-weight:400;text-anchor:start;dominant-baseline:auto"/>
      </g>
      <g transform="translate(156.362487, 39.25413)" style="fill:rgb(0, 0, 0);stroke:none;color:rgb(0, 0, 0);stroke-width:1px;stroke-linecap:butt;stroke-linejoin:miter;opacity:1;font-family:&quot;Anthropic Sans&quot;, -apple-system, &quot;system-ui&quot;, &quot;Segoe UI&quot;, sans-serif;font-size:16px;font-weight:400;text-anchor:start;dominant-baseline:auto">
        <path d="M 8.625 -24.0625 C 7.414062 -24.0625 6.460938 -24.007812 5.765625 -23.90625 C 5.304688 -23.832031 4.890625 -23.644531 4.515625 -23.34375 C 4.140625 -23.050781 3.816406 -22.710938 3.546875 -22.328125 C 3.285156 -21.953125 2.96875 -21.445312 2.59375 -20.8125 C 2.195312 -20.113281 1.851562 -19.585938 1.5625 -19.234375 L 0.671875 -19.234375 L 1.15625 -25.625 C 3.3125 -25.53125 6.09375 -25.484375 9.5 -25.484375 L 17.140625 -25.515625 L 19.703125 -25.515625 C 22.347656 -25.515625 24.484375 -25.566406 26.109375 -25.671875 L 26.75 -19.21875 L 25.796875 -19.21875 C 25.609375 -19.457031 25.40625 -19.753906 25.1875 -20.109375 C 24.976562 -20.472656 24.84375 -20.707031 24.78125 -20.8125 C 24.257812 -21.738281 23.773438 -22.460938 23.328125 -22.984375 C 22.878906 -23.503906 22.347656 -23.8125 21.734375 -23.90625 C 21.285156 -23.96875 20.832031 -24.007812 20.375 -24.03125 C 19.925781 -24.050781 19.363281 -24.0625 18.6875 -24.0625 L 15.6875 -24.0625 L 15.6875 -4.71875 C 15.6875 -3.71875 15.859375 -2.972656 16.203125 -2.484375 C 16.554688 -1.992188 17.015625 -1.660156 17.578125 -1.484375 C 18.148438 -1.316406 19 -1.160156 20.125 -1.015625 C 20.125 -0.554688 20.109375 -0.21875 20.078125 0 L 7.109375 0 L 7.078125 -1.015625 C 7.296875 -1.097656 7.640625 -1.203125 8.109375 -1.328125 C 8.878906 -1.566406 9.484375 -1.789062 9.921875 -2 C 10.367188 -2.207031 10.738281 -2.523438 11.03125 -2.953125 C 11.332031 -3.390625 11.484375 -3.976562 11.484375 -4.71875 L 11.484375 -24.0625 Z M 8.625 -24.0625 " style="fill:rgb(0, 0, 0);stroke:none;color:rgb(0, 0, 0);stroke-width:1px;stroke-linecap:butt;stroke-linejoin:miter;opacity:1;font-family:&quot;Anthropic Sans&quot;, -apple-system, &quot;system-ui&quot;, &quot;Segoe UI&quot;, sans-serif;font-size:16px;font-weight:400;text-anchor:start;dominant-baseline:auto"/>
      </g>
      <g transform="translate(183.687344, 39.25413)" style="fill:rgb(0, 0, 0);stroke:none;color:rgb(0, 0, 0);stroke-width:1px;stroke-linecap:butt;stroke-linejoin:miter;opacity:1;font-family:&quot;Anthropic Sans&quot;, -apple-system, &quot;system-ui&quot;, &quot;Segoe UI&quot;, sans-serif;font-size:16px;font-weight:400;text-anchor:start;dominant-baseline:auto">
        <path d="M 24.359375 0.171875 C 24.148438 0.210938 23.9375 0.234375 23.71875 0.234375 C 23.476562 0.234375 23.109375 0.195312 22.609375 0.125 C 22.109375 0.0390625 21.726562 0 21.46875 0 L 1.375 0 L 1.328125 -0.953125 C 1.734375 -1.179688 2.109375 -1.34375 2.453125 -1.4375 C 2.804688 -1.539062 3.191406 -1.625 3.609375 -1.6875 C 4.128906 -1.78125 4.507812 -1.894531 4.75 -2.03125 C 4.988281 -2.175781 5.171875 -2.488281 5.296875 -2.96875 C 5.429688 -3.445312 5.5 -4.203125 5.5 -5.234375 L 5.5 -20.0625 C 5.5 -21.082031 5.414062 -21.832031 5.25 -22.3125 C 5.09375 -22.800781 4.859375 -23.140625 4.546875 -23.328125 C 4.234375 -23.515625 3.710938 -23.71875 2.984375 -23.9375 C 2.859375 -23.976562 2.628906 -24.050781 2.296875 -24.15625 C 1.960938 -24.257812 1.640625 -24.378906 1.328125 -24.515625 L 1.375 -25.515625 L 21.359375 -25.515625 C 21.535156 -25.515625 21.734375 -25.523438 21.953125 -25.546875 C 22.171875 -25.578125 22.320312 -25.597656 22.40625 -25.609375 C 22.800781 -25.671875 23.15625 -25.703125 23.46875 -25.703125 C 23.75 -25.703125 23.992188 -25.675781 24.203125 -25.625 L 24.203125 -19.53125 L 23.171875 -19.5 C 22.953125 -19.71875 22.769531 -19.960938 22.625 -20.234375 C 22.476562 -20.515625 22.316406 -20.875 22.140625 -21.3125 C 21.878906 -21.96875 21.617188 -22.476562 21.359375 -22.84375 C 21.109375 -23.207031 20.734375 -23.472656 20.234375 -23.640625 C 19.503906 -23.878906 18.597656 -24.03125 17.515625 -24.09375 C 16.429688 -24.164062 15.175781 -24.203125 13.75 -24.203125 C 12.082031 -24.203125 10.765625 -24.140625 9.796875 -24.015625 C 9.742188 -23.429688 9.71875 -22.757812 9.71875 -22 L 9.71875 -14.046875 L 15.359375 -14.046875 C 16.390625 -14.046875 17.160156 -14.125 17.671875 -14.28125 C 18.179688 -14.4375 18.578125 -14.691406 18.859375 -15.046875 C 19.140625 -15.398438 19.523438 -16.023438 20.015625 -16.921875 L 20.3125 -17.453125 L 21.4375 -17.453125 L 21.4375 -9.046875 L 20.3125 -9 C 19.894531 -10.113281 19.363281 -10.984375 18.71875 -11.609375 C 18.070312 -12.242188 17.207031 -12.5625 16.125 -12.5625 L 9.71875 -12.5625 L 9.71875 -5.953125 C 9.71875 -4.585938 9.875 -3.578125 10.1875 -2.921875 C 10.507812 -2.265625 10.972656 -1.84375 11.578125 -1.65625 C 12.191406 -1.46875 13.0625 -1.375 14.1875 -1.375 L 16.109375 -1.375 C 17.753906 -1.375 19.171875 -1.554688 20.359375 -1.921875 C 21.554688 -2.296875 22.441406 -3.0625 23.015625 -4.21875 L 23.296875 -4.8125 C 23.523438 -5.320312 23.710938 -5.703125 23.859375 -5.953125 C 24.003906 -6.210938 24.1875 -6.460938 24.40625 -6.703125 L 25.640625 -6.703125 Z M 24.359375 0.171875 " style="fill:rgb(0, 0, 0);stroke:none;color:rgb(0, 0, 0);stroke-width:1px;stroke-linecap:butt;stroke-linejoin:miter;opacity:1;font-family:&quot;Anthropic Sans&quot;, -apple-system, &quot;system-ui&quot;, &quot;Segoe UI&quot;, sans-serif;font-size:16px;font-weight:400;text-anchor:start;dominant-baseline:auto"/>
      </g>
      <g transform="translate(210.83591, 39.25413)" style="fill:rgb(0, 0, 0);stroke:none;color:rgb(0, 0, 0);stroke-width:1px;stroke-linecap:butt;stroke-linejoin:miter;opacity:1;font-family:&quot;Anthropic Sans&quot;, -apple-system, &quot;system-ui&quot;, &quot;Segoe UI&quot;, sans-serif;font-size:16px;font-weight:400;text-anchor:start;dominant-baseline:auto">
        <path d="M 8.125 -2.265625 C 8.125 -1.796875 8.003906 -1.359375 7.765625 -0.953125 C 7.523438 -0.554688 7.195312 -0.234375 6.78125 0.015625 C 6.375 0.265625 5.921875 0.390625 5.421875 0.390625 C 4.941406 0.390625 4.492188 0.269531 4.078125 0.03125 C 3.671875 -0.207031 3.347656 -0.53125 3.109375 -0.9375 C 2.867188 -1.351562 2.75 -1.796875 2.75 -2.265625 C 2.75 -2.742188 2.867188 -3.179688 3.109375 -3.578125 C 3.347656 -3.984375 3.671875 -4.304688 4.078125 -4.546875 C 4.492188 -4.796875 4.941406 -4.921875 5.421875 -4.921875 C 5.921875 -4.921875 6.375 -4.796875 6.78125 -4.546875 C 7.195312 -4.304688 7.523438 -3.984375 7.765625 -3.578125 C 8.003906 -3.179688 8.125 -2.742188 8.125 -2.265625 Z M 8.125 -2.265625 " style="fill:rgb(0, 0, 0);stroke:none;color:rgb(0, 0, 0);stroke-width:1px;stroke-linecap:butt;stroke-linejoin:miter;opacity:1;font-family:&quot;Anthropic Sans&quot;, -apple-system, &quot;system-ui&quot;, &quot;Segoe UI&quot;, sans-serif;font-size:16px;font-weight:400;text-anchor:start;dominant-baseline:auto"/>
      </g>
      <g transform="translate(221.726678, 39.25413)" style="fill:rgb(0, 0, 0);stroke:none;color:rgb(0, 0, 0);stroke-width:1px;stroke-linecap:butt;stroke-linejoin:miter;opacity:1;font-family:&quot;Anthropic Sans&quot;, -apple-system, &quot;system-ui&quot;, &quot;Segoe UI&quot;, sans-serif;font-size:16px;font-weight:400;text-anchor:start;dominant-baseline:auto">
        <path d="M 18.296875 -20.984375 L 17.828125 -22.171875 C 17.617188 -22.703125 17.457031 -23.097656 17.34375 -23.359375 C 17.1875 -23.484375 16.648438 -23.722656 15.734375 -24.078125 C 15.015625 -24.367188 14.5 -24.582031 14.1875 -24.71875 C 13.875 -24.863281 13.71875 -25 13.71875 -25.125 C 13.71875 -25.144531 13.734375 -25.207031 13.765625 -25.3125 C 13.804688 -25.414062 13.835938 -25.484375 13.859375 -25.515625 L 26.4375 -25.515625 C 26.445312 -25.472656 26.46875 -25.40625 26.5 -25.3125 C 26.53125 -25.21875 26.546875 -25.15625 26.546875 -25.125 C 26.546875 -24.820312 26.40625 -24.625 26.125 -24.53125 C 25.84375 -24.4375 25.398438 -24.363281 24.796875 -24.3125 C 24.128906 -24.257812 23.625 -24.171875 23.28125 -24.046875 C 22.945312 -23.921875 22.78125 -23.664062 22.78125 -23.28125 C 22.78125 -23 23.515625 -20.546875 24.984375 -15.921875 C 26.453125 -11.304688 27.425781 -8.316406 27.90625 -6.953125 L 28.453125 -8.625 C 31.503906 -17.75 33.03125 -22.625 33.03125 -23.25 C 33.03125 -23.65625 32.832031 -23.941406 32.4375 -24.109375 C 32.050781 -24.273438 31.476562 -24.410156 30.71875 -24.515625 C 30.40625 -24.546875 30.097656 -24.59375 29.796875 -24.65625 C 29.492188 -24.726562 29.257812 -24.8125 29.09375 -24.90625 L 28.984375 -25.125 L 29.09375 -25.515625 L 39.21875 -25.515625 C 39.269531 -25.515625 39.332031 -25.488281 39.40625 -25.4375 C 39.488281 -25.394531 39.546875 -25.347656 39.578125 -25.296875 C 39.578125 -25.097656 39.425781 -24.941406 39.125 -24.828125 C 38.820312 -24.722656 38.335938 -24.597656 37.671875 -24.453125 C 36.691406 -24.242188 35.914062 -24.015625 35.34375 -23.765625 C 34.769531 -23.523438 34.390625 -23.160156 34.203125 -22.671875 C 34.066406 -22.265625 33.914062 -21.796875 33.75 -21.265625 C 33.59375 -20.734375 33.484375 -20.359375 33.421875 -20.140625 C 33.347656 -19.828125 33.285156 -19.59375 33.234375 -19.4375 L 27.375 -0.015625 C 27.289062 0.242188 27.015625 0.375 26.546875 0.375 C 26.335938 0.375 26.164062 0.347656 26.03125 0.296875 C 25.894531 0.242188 25.785156 0.140625 25.703125 -0.015625 C 25.453125 -0.503906 25.203125 -1.21875 24.953125 -2.15625 L 24.609375 -3.265625 L 19.046875 -19.46875 L 13.96875 -4.875 C 13.851562 -4.550781 13.691406 -4.023438 13.484375 -3.296875 C 13.234375 -2.472656 13.019531 -1.820312 12.84375 -1.34375 C 12.675781 -0.875 12.488281 -0.429688 12.28125 -0.015625 C 12.207031 0.148438 12.101562 0.257812 11.96875 0.3125 C 11.84375 0.375 11.675781 0.40625 11.46875 0.40625 C 11.070312 0.40625 10.734375 0.132812 10.453125 -0.40625 C 10.179688 -0.957031 9.910156 -1.664062 9.640625 -2.53125 L 9.4375 -3.15625 L 6.765625 -10.34375 C 5.304688 -14.289062 3.832031 -18.207031 2.34375 -22.09375 C 2.132812 -22.632812 1.832031 -23.035156 1.4375 -23.296875 C 1.039062 -23.566406 0.507812 -23.828125 -0.15625 -24.078125 C -0.65625 -24.265625 -1.035156 -24.421875 -1.296875 -24.546875 C -1.554688 -24.679688 -1.796875 -24.859375 -2.015625 -25.078125 L -1.875 -25.515625 L 10.71875 -25.515625 C 10.726562 -25.472656 10.742188 -25.410156 10.765625 -25.328125 C 10.796875 -25.242188 10.8125 -25.175781 10.8125 -25.125 C 10.8125 -24.851562 10.679688 -24.671875 10.421875 -24.578125 C 10.171875 -24.484375 9.789062 -24.398438 9.28125 -24.328125 C 8.65625 -24.253906 8.175781 -24.140625 7.84375 -23.984375 C 7.507812 -23.835938 7.34375 -23.5625 7.34375 -23.15625 C 7.34375 -22.976562 8.046875 -20.898438 9.453125 -16.921875 C 10.859375 -12.953125 12.050781 -9.617188 13.03125 -6.921875 Z M 18.296875 -20.984375 " style="fill:rgb(0, 0, 0);stroke:none;color:rgb(0, 0, 0);stroke-width:1px;stroke-linecap:butt;stroke-linejoin:miter;opacity:1;font-family:&quot;Anthropic Sans&quot;, -apple-system, &quot;system-ui&quot;, &quot;Segoe UI&quot;, sans-serif;font-size:16px;font-weight:400;text-anchor:start;dominant-baseline:auto"/>
      </g>
      <g transform="translate(259.589723, 39.25413)" style="fill:rgb(0, 0, 0);stroke:none;color:rgb(0, 0, 0);stroke-width:1px;stroke-linecap:butt;stroke-linejoin:miter;opacity:1;font-family:&quot;Anthropic Sans&quot;, -apple-system, &quot;system-ui&quot;, &quot;Segoe UI&quot;, sans-serif;font-size:16px;font-weight:400;text-anchor:start;dominant-baseline:auto">
        <path d="M 9.96875 -5.09375 C 9.96875 -4.101562 10.054688 -3.367188 10.234375 -2.890625 C 10.410156 -2.421875 10.648438 -2.109375 10.953125 -1.953125 C 11.265625 -1.796875 11.753906 -1.660156 12.421875 -1.546875 C 13.191406 -1.421875 13.878906 -1.25 14.484375 -1.03125 L 14.4375 0 L 1.40625 0 L 1.40625 -1.015625 C 1.789062 -1.191406 2.132812 -1.3125 2.4375 -1.375 C 2.75 -1.445312 3.140625 -1.523438 3.609375 -1.609375 C 4.191406 -1.679688 4.617188 -1.789062 4.890625 -1.9375 C 5.171875 -2.09375 5.382812 -2.429688 5.53125 -2.953125 C 5.6875 -3.472656 5.765625 -4.304688 5.765625 -5.453125 L 5.765625 -20.1875 C 5.765625 -21.25 5.671875 -22.035156 5.484375 -22.546875 C 5.304688 -23.054688 5.066406 -23.382812 4.765625 -23.53125 C 4.472656 -23.675781 4.039062 -23.785156 3.46875 -23.859375 C 3 -23.941406 2.609375 -24.019531 2.296875 -24.09375 C 1.992188 -24.175781 1.671875 -24.316406 1.328125 -24.515625 L 1.375 -25.515625 L 14.359375 -25.515625 L 14.40625 -24.484375 C 14.125 -24.378906 13.726562 -24.269531 13.21875 -24.15625 C 12.5 -23.976562 11.925781 -23.796875 11.5 -23.609375 C 11.070312 -23.421875 10.707031 -23.132812 10.40625 -22.75 C 10.113281 -22.363281 9.96875 -21.835938 9.96875 -21.171875 Z M 9.96875 -5.09375 " style="fill:rgb(0, 0, 0);stroke:none;color:rgb(0, 0, 0);stroke-width:1px;stroke-linecap:butt;stroke-linejoin:miter;opacity:1;font-family:&quot;Anthropic Sans&quot;, -apple-system, &quot;system-ui&quot;, &quot;Segoe UI&quot;, sans-serif;font-size:16px;font-weight:400;text-anchor:start;dominant-baseline:auto"/>
      </g>
      <g transform="translate(275.39702, 39.25413)" style="fill:rgb(0, 0, 0);stroke:none;color:rgb(0, 0, 0);stroke-width:1px;stroke-linecap:butt;stroke-linejoin:miter;opacity:1;font-family:&quot;Anthropic Sans&quot;, -apple-system, &quot;system-ui&quot;, &quot;Segoe UI&quot;, sans-serif;font-size:16px;font-weight:400;text-anchor:start;dominant-baseline:auto">
        <path d="M 6.328125 -21.375 C 5.984375 -21.925781 5.628906 -22.363281 5.265625 -22.6875 C 4.898438 -23.007812 4.535156 -23.253906 4.171875 -23.421875 C 3.804688 -23.597656 3.316406 -23.789062 2.703125 -24 C 2.117188 -24.195312 1.660156 -24.359375 1.328125 -24.484375 L 1.328125 -25.515625 L 8.171875 -25.515625 L 26.609375 -6.453125 L 26.609375 -18.765625 C 26.609375 -20.003906 26.429688 -21.132812 26.078125 -22.15625 C 25.929688 -22.570312 25.734375 -22.894531 25.484375 -23.125 C 25.242188 -23.363281 24.976562 -23.535156 24.6875 -23.640625 C 24.394531 -23.742188 24.007812 -23.859375 23.53125 -23.984375 C 23.445312 -24.003906 23.242188 -24.054688 22.921875 -24.140625 C 22.609375 -24.234375 22.320312 -24.34375 22.0625 -24.46875 C 22.0625 -24.8125 22.082031 -25.160156 22.125 -25.515625 L 32.4375 -25.515625 L 32.4375 -24.453125 C 32.070312 -24.285156 31.695312 -24.125 31.3125 -23.96875 C 30.351562 -23.539062 29.691406 -23.191406 29.328125 -22.921875 C 28.960938 -22.648438 28.703125 -22.222656 28.546875 -21.640625 C 28.398438 -21.054688 28.320312 -20.101562 28.3125 -18.78125 C 28.3125 -18.125 28.296875 -17.140625 28.265625 -15.828125 C 28.253906 -14.835938 28.242188 -13.597656 28.234375 -12.109375 C 28.222656 -10.628906 28.21875 -8.898438 28.21875 -6.921875 C 28.21875 -6.054688 28.296875 -4.773438 28.453125 -3.078125 C 28.578125 -1.640625 28.644531 -0.554688 28.65625 0.171875 C 28.414062 0.265625 28.097656 0.3125 27.703125 0.3125 C 27.285156 0.3125 26.914062 0.265625 26.59375 0.171875 C 25.644531 -0.972656 24.570312 -2.191406 23.375 -3.484375 L 7.890625 -19.765625 L 7.890625 -6.015625 C 7.890625 -5.140625 8.003906 -4.257812 8.234375 -3.375 C 8.335938 -2.925781 8.523438 -2.582031 8.796875 -2.34375 C 9.066406 -2.101562 9.363281 -1.929688 9.6875 -1.828125 C 10.007812 -1.722656 10.441406 -1.617188 10.984375 -1.515625 C 11.742188 -1.390625 12.304688 -1.226562 12.671875 -1.03125 C 12.671875 -0.695312 12.65625 -0.351562 12.625 0 L 1.5625 0 C 1.539062 -0.238281 1.53125 -0.59375 1.53125 -1.0625 L 2.421875 -1.296875 C 3.265625 -1.503906 3.929688 -1.703125 4.421875 -1.890625 C 4.910156 -2.085938 5.332031 -2.410156 5.6875 -2.859375 C 6.050781 -3.304688 6.265625 -3.914062 6.328125 -4.6875 Z M 6.328125 -21.375 " style="fill:rgb(0, 0, 0);stroke:none;color:rgb(0, 0, 0);stroke-width:1px;stroke-linecap:butt;stroke-linejoin:miter;opacity:1;font-family:&quot;Anthropic Sans&quot;, -apple-system, &quot;system-ui&quot;, &quot;Segoe UI&quot;, sans-serif;font-size:16px;font-weight:400;text-anchor:start;dominant-baseline:auto"/>
      </g>
      <g transform="translate(309.166233, 39.25413)" style="fill:rgb(0, 0, 0);stroke:none;color:rgb(0, 0, 0);stroke-width:1px;stroke-linecap:butt;stroke-linejoin:miter;opacity:1;font-family:&quot;Anthropic Sans&quot;, -apple-system, &quot;system-ui&quot;, &quot;Segoe UI&quot;, sans-serif;font-size:16px;font-weight:400;text-anchor:start;dominant-baseline:auto">
        <path d="M 24.359375 0.171875 C 24.148438 0.210938 23.9375 0.234375 23.71875 0.234375 C 23.476562 0.234375 23.109375 0.195312 22.609375 0.125 C 22.109375 0.0390625 21.726562 0 21.46875 0 L 1.375 0 L 1.328125 -0.953125 C 1.734375 -1.179688 2.109375 -1.34375 2.453125 -1.4375 C 2.804688 -1.539062 3.191406 -1.625 3.609375 -1.6875 C 4.128906 -1.78125 4.507812 -1.894531 4.75 -2.03125 C 4.988281 -2.175781 5.171875 -2.488281 5.296875 -2.96875 C 5.429688 -3.445312 5.5 -4.203125 5.5 -5.234375 L 5.5 -20.0625 C 5.5 -21.082031 5.414062 -21.832031 5.25 -22.3125 C 5.09375 -22.800781 4.859375 -23.140625 4.546875 -23.328125 C 4.234375 -23.515625 3.710938 -23.71875 2.984375 -23.9375 C 2.859375 -23.976562 2.628906 -24.050781 2.296875 -24.15625 C 1.960938 -24.257812 1.640625 -24.378906 1.328125 -24.515625 L 1.375 -25.515625 L 21.359375 -25.515625 C 21.535156 -25.515625 21.734375 -25.523438 21.953125 -25.546875 C 22.171875 -25.578125 22.320312 -25.597656 22.40625 -25.609375 C 22.800781 -25.671875 23.15625 -25.703125 23.46875 -25.703125 C 23.75 -25.703125 23.992188 -25.675781 24.203125 -25.625 L 24.203125 -19.53125 L 23.171875 -19.5 C 22.953125 -19.71875 22.769531 -19.960938 22.625 -20.234375 C 22.476562 -20.515625 22.316406 -20.875 22.140625 -21.3125 C 21.878906 -21.96875 21.617188 -22.476562 21.359375 -22.84375 C 21.109375 -23.207031 20.734375 -23.472656 20.234375 -23.640625 C 19.503906 -23.878906 18.597656 -24.03125 17.515625 -24.09375 C 16.429688 -24.164062 15.175781 -24.203125 13.75 -24.203125 C 12.082031 -24.203125 10.765625 -24.140625 9.796875 -24.015625 C 9.742188 -23.429688 9.71875 -22.757812 9.71875 -22 L 9.71875 -14.046875 L 15.359375 -14.046875 C 16.390625 -14.046875 17.160156 -14.125 17.671875 -14.28125 C 18.179688 -14.4375 18.578125 -14.691406 18.859375 -15.046875 C 19.140625 -15.398438 19.523438 -16.023438 20.015625 -16.921875 L 20.3125 -17.453125 L 21.4375 -17.453125 L 21.4375 -9.046875 L 20.3125 -9 C 19.894531 -10.113281 19.363281 -10.984375 18.71875 -11.609375 C 18.070312 -12.242188 17.207031 -12.5625 16.125 -12.5625 L 9.71875 -12.5625 L 9.71875 -5.953125 C 9.71875 -4.585938 9.875 -3.578125 10.1875 -2.921875 C 10.507812 -2.265625 10.972656 -1.84375 11.578125 -1.65625 C 12.191406 -1.46875 13.0625 -1.375 14.1875 -1.375 L 16.109375 -1.375 C 17.753906 -1.375 19.171875 -1.554688 20.359375 -1.921875 C 21.554688 -2.296875 22.441406 -3.0625 23.015625 -4.21875 L 23.296875 -4.8125 C 23.523438 -5.320312 23.710938 -5.703125 23.859375 -5.953125 C 24.003906 -6.210938 24.1875 -6.460938 24.40625 -6.703125 L 25.640625 -6.703125 Z M 24.359375 0.171875 " style="fill:rgb(0, 0, 0);stroke:none;color:rgb(0, 0, 0);stroke-width:1px;stroke-linecap:butt;stroke-linejoin:miter;opacity:1;font-family:&quot;Anthropic Sans&quot;, -apple-system, &quot;system-ui&quot;, &quot;Segoe UI&quot;, sans-serif;font-size:16px;font-weight:400;text-anchor:start;dominant-baseline:auto"/>
      </g>
    </g>
  </g>
  <g fill="#6c1e20" fill-opacity="1" fill-rule="nonzero" style="fill:rgb(108, 30, 32);stroke:none;color:rgb(0, 0, 0);stroke-width:1px;stroke-linecap:butt;stroke-linejoin:miter;opacity:1;font-family:&quot;Anthropic Sans&quot;, -apple-system, &quot;system-ui&quot;, &quot;Segoe UI&quot;, sans-serif;font-size:16px;font-weight:400;text-anchor:start;dominant-baseline:auto">
    <path d="M 254.546875 251.511719 L 254.546875 229.171875 C 254.546875 228.9375 254.359375 228.75 254.128906 228.75 L 233.070312 228.75 C 232.835938 228.75 232.648438 228.9375 232.648438 229.171875 L 232.648438 251.511719 C 232.648438 257.546875 237.558594 262.460938 243.597656 262.460938 C 249.636719 262.460938 254.546875 257.546875 254.546875 251.511719 Z M 233.492188 251.511719 L 233.492188 229.59375 L 253.707031 229.59375 L 253.707031 251.511719 C 253.707031 257.085938 249.171875 261.617188 243.597656 261.617188 C 238.023438 261.617188 233.492188 257.085938 233.492188 251.511719 Z M 233.492188 251.511719 " style="fill:rgb(108, 30, 32);stroke:none;color:rgb(0, 0, 0);stroke-width:1px;stroke-linecap:butt;stroke-linejoin:miter;opacity:1;font-family:&quot;Anthropic Sans&quot;, -apple-system, &quot;system-ui&quot;, &quot;Segoe UI&quot;, sans-serif;font-size:16px;font-weight:400;text-anchor:start;dominant-baseline:auto"/>
    <path d="M 248.820312 237.527344 C 249.046875 237.777344 249.238281 238.234375 249.214844 238.578125 C 249.210938 238.667969 249.132812 238.738281 249.042969 238.734375 C 248.359375 238.71875 247.742188 238.734375 247.199219 238.78125 C 246.558594 238.835938 246.085938 238.773438 245.632812 238.296875 C 245.167969 237.8125 244.882812 237.210938 244.773438 236.496094 C 244.769531 236.464844 244.738281 236.441406 244.707031 236.441406 L 244.21875 236.441406 C 244.183594 236.441406 244.152344 236.46875 244.152344 236.507812 C 244.164062 237.046875 244.085938 237.585938 243.925781 238.125 C 243.914062 238.164062 243.925781 238.207031 243.960938 238.230469 C 244.476562 238.597656 244.847656 239.09375 245.078125 239.71875 C 245.09375 239.761719 245.097656 239.808594 245.097656 239.855469 C 245.089844 240.070312 245.015625 240.289062 244.875 240.511719 C 244.835938 240.570312 244.761719 240.601562 244.691406 240.585938 C 243.714844 240.363281 242.796875 240.464844 241.933594 240.890625 C 241.902344 240.90625 241.871094 240.910156 241.839844 240.902344 C 241.75 240.886719 241.675781 240.832031 241.617188 240.746094 C 241.601562 240.722656 241.59375 240.703125 241.589844 240.675781 C 241.496094 239.953125 241.121094 239.382812 240.597656 238.863281 C 240.578125 238.84375 240.566406 238.820312 240.558594 238.796875 C 240.519531 238.65625 240.558594 238.539062 240.671875 238.445312 C 241.222656 238 241.835938 237.78125 242.515625 237.796875 C 242.542969 237.796875 242.570312 237.785156 242.589844 237.765625 C 242.75 237.589844 242.796875 237.203125 242.804688 236.96875 C 242.84375 236.023438 242.464844 235.148438 242.046875 234.273438 C 241.609375 233.355469 242.960938 232.785156 243.398438 233.695312 C 243.65625 234.234375 243.867188 234.8125 244.035156 235.421875 C 244.042969 235.453125 244.066406 235.472656 244.097656 235.472656 L 244.695312 235.472656 C 244.738281 235.472656 244.773438 235.441406 244.777344 235.402344 C 244.957031 234.316406 245.492188 233.585938 246.390625 233.210938 C 247.148438 232.890625 248.183594 232.867188 248.996094 233.027344 C 249.074219 233.039062 249.125 233.109375 249.117188 233.1875 C 249.066406 233.632812 248.925781 234.035156 248.703125 234.394531 C 248.691406 234.410156 248.695312 234.433594 248.714844 234.445312 C 248.71875 234.449219 248.726562 234.453125 248.734375 234.453125 C 249.367188 234.460938 249.824219 234.496094 250.332031 234.839844 C 250.816406 235.164062 251.148438 235.539062 251.605469 236.03125 C 251.703125 236.132812 251.699219 236.238281 251.597656 236.347656 C 250.914062 237.082031 249.828125 237.449219 248.847656 237.460938 C 248.828125 237.460938 248.808594 237.480469 248.808594 237.5 C 248.808594 237.511719 248.8125 237.519531 248.820312 237.527344 Z M 248.820312 237.527344 " style="fill:rgb(108, 30, 32);stroke:none;color:rgb(0, 0, 0);stroke-width:1px;stroke-linecap:butt;stroke-linejoin:miter;opacity:1;font-family:&quot;Anthropic Sans&quot;, -apple-system, &quot;system-ui&quot;, &quot;Segoe UI&quot;, sans-serif;font-size:16px;font-weight:400;text-anchor:start;dominant-baseline:auto"/>
    <path d="M 235.421875 240.070312 C 236.085938 238.960938 237.386719 238.421875 238.652344 238.6875 C 239.777344 238.925781 240.679688 239.816406 240.808594 240.949219 C 240.933594 242.054688 240.355469 243.160156 239.308594 243.613281 C 238.160156 244.113281 237.054688 244.019531 235.992188 243.339844 C 235.804688 243.21875 235.644531 243.054688 235.511719 242.851562 C 234.90625 241.90625 234.878906 240.976562 235.421875 240.070312 Z M 235.421875 240.070312 " style="fill:rgb(108, 30, 32);stroke:none;color:rgb(0, 0, 0);stroke-width:1px;stroke-linecap:butt;stroke-linejoin:miter;opacity:1;font-family:&quot;Anthropic Sans&quot;, -apple-system, &quot;system-ui&quot;, &quot;Segoe UI&quot;, sans-serif;font-size:16px;font-weight:400;text-anchor:start;dominant-baseline:auto"/>
    <path d="M 246.4375 239.503906 C 246.460938 239.492188 246.488281 239.488281 246.515625 239.492188 C 247.351562 239.621094 248.335938 239.4375 249.09375 239.433594 C 249.410156 239.433594 249.730469 239.625 250.015625 239.832031 C 250.679688 240.3125 250.980469 240.949219 250.917969 241.75 C 250.847656 242.675781 250.15625 243.496094 249.238281 243.707031 C 248.695312 243.828125 247.832031 243.804688 247.421875 243.382812 C 247.335938 243.296875 247.308594 243.09375 247.25 242.933594 C 246.980469 242.179688 246.503906 241.558594 245.816406 241.078125 C 245.699219 240.996094 245.660156 240.871094 245.695312 240.707031 C 245.785156 240.3125 246.046875 239.699219 246.4375 239.503906 Z M 246.4375 239.503906 " style="fill:rgb(108, 30, 32);stroke:none;color:rgb(0, 0, 0);stroke-width:1px;stroke-linecap:butt;stroke-linejoin:miter;opacity:1;font-family:&quot;Anthropic Sans&quot;, -apple-system, &quot;system-ui&quot;, &quot;Segoe UI&quot;, sans-serif;font-size:16px;font-weight:400;text-anchor:start;dominant-baseline:auto"/>
    <path d="M 246.589844 243.828125 C 246.621094 244.191406 246.578125 244.550781 246.460938 244.902344 C 246.34375 245.25 246.160156 245.566406 245.914062 245.851562 C 245.664062 246.132812 245.371094 246.359375 245.027344 246.53125 C 244.683594 246.699219 244.324219 246.800781 243.9375 246.835938 C 243.554688 246.871094 243.179688 246.832031 242.8125 246.722656 C 242.449219 246.613281 242.117188 246.441406 241.824219 246.207031 C 241.53125 245.972656 241.292969 245.695312 241.117188 245.367188 C 240.941406 245.042969 240.835938 244.699219 240.804688 244.332031 C 240.773438 243.96875 240.816406 243.609375 240.933594 243.257812 C 241.050781 242.910156 241.234375 242.59375 241.480469 242.308594 C 241.730469 242.027344 242.027344 241.800781 242.367188 241.628906 C 242.710938 241.460938 243.074219 241.359375 243.457031 241.324219 C 243.839844 241.289062 244.214844 241.328125 244.582031 241.4375 C 244.949219 241.546875 245.277344 241.71875 245.570312 241.953125 C 245.867188 242.1875 246.101562 242.464844 246.277344 242.792969 C 246.453125 243.117188 246.558594 243.460938 246.589844 243.828125 Z M 246.589844 243.828125 " style="fill:rgb(108, 30, 32);stroke:none;color:rgb(0, 0, 0);stroke-width:1px;stroke-linecap:butt;stroke-linejoin:miter;opacity:1;font-family:&quot;Anthropic Sans&quot;, -apple-system, &quot;system-ui&quot;, &quot;Segoe UI&quot;, sans-serif;font-size:16px;font-weight:400;text-anchor:start;dominant-baseline:auto"/>
    <path d="M 239.628906 244.335938 C 239.824219 244.238281 239.996094 244.382812 240.011719 244.578125 C 240.066406 245.226562 240.339844 245.839844 240.839844 246.417969 C 240.9375 246.53125 240.925781 246.660156 240.808594 246.804688 C 240.007812 247.777344 238.511719 247.984375 237.34375 247.730469 C 237.300781 247.71875 237.261719 247.703125 237.226562 247.679688 C 236.527344 247.238281 236.28125 246.347656 236.203125 245.554688 C 236.171875 245.261719 236.222656 244.980469 236.3125 244.71875 C 236.390625 244.492188 236.617188 244.476562 236.835938 244.582031 C 236.9375 244.628906 237.070312 244.667969 237.242188 244.695312 C 238.09375 244.832031 238.890625 244.714844 239.628906 244.335938 Z M 239.628906 244.335938 " style="fill:rgb(108, 30, 32);stroke:none;color:rgb(0, 0, 0);stroke-width:1px;stroke-linecap:butt;stroke-linejoin:miter;opacity:1;font-family:&quot;Anthropic Sans&quot;, -apple-system, &quot;system-ui&quot;, &quot;Segoe UI&quot;, sans-serif;font-size:16px;font-weight:400;text-anchor:start;dominant-baseline:auto"/>
    <path d="M 245.84375 247.5 C 245.722656 247.371094 245.652344 247.175781 245.820312 247.058594 C 246.441406 246.628906 246.902344 246.0625 247.199219 245.367188 C 247.289062 245.15625 247.34375 244.976562 247.355469 244.828125 C 247.382812 244.554688 247.507812 244.339844 247.789062 244.429688 C 248.238281 244.578125 248.6875 244.609375 249.128906 244.527344 C 249.425781 244.472656 249.585938 244.824219 249.703125 245.082031 C 250.015625 245.785156 250 246.484375 249.652344 247.171875 C 249.453125 247.566406 249.230469 247.820312 248.839844 248.039062 C 248.136719 248.429688 247.394531 248.449219 246.605469 248.089844 C 246.347656 247.972656 246.09375 247.777344 245.84375 247.5 Z M 245.84375 247.5 " style="fill:rgb(108, 30, 32);stroke:none;color:rgb(0, 0, 0);stroke-width:1px;stroke-linecap:butt;stroke-linejoin:miter;opacity:1;font-family:&quot;Anthropic Sans&quot;, -apple-system, &quot;system-ui&quot;, &quot;Segoe UI&quot;, sans-serif;font-size:16px;font-weight:400;text-anchor:start;dominant-baseline:auto"/>
    <path d="M 247.035156 249.058594 C 247.035156 249.09375 247.035156 249.121094 247.027344 249.144531 C 246.199219 251.316406 243.167969 251.570312 241.933594 249.597656 C 241.542969 248.976562 241.46875 248.234375 241.609375 247.542969 C 241.632812 247.4375 241.695312 247.355469 241.804688 247.300781 C 241.859375 247.273438 241.960938 247.289062 242.101562 247.355469 C 242.910156 247.71875 243.765625 247.800781 244.664062 247.589844 C 244.707031 247.582031 244.792969 247.613281 244.917969 247.679688 C 244.941406 247.691406 244.960938 247.710938 244.976562 247.730469 C 245.464844 248.371094 246.132812 248.878906 246.941406 248.964844 C 246.988281 248.96875 247.027344 249.007812 247.035156 249.058594 Z M 247.035156 249.058594 " style="fill:rgb(108, 30, 32);stroke:none;color:rgb(0, 0, 0);stroke-width:1px;stroke-linecap:butt;stroke-linejoin:miter;opacity:1;font-family:&quot;Anthropic Sans&quot;, -apple-system, &quot;system-ui&quot;, &quot;Segoe UI&quot;, sans-serif;font-size:16px;font-weight:400;text-anchor:start;dominant-baseline:auto"/>
    <path d="M 241.953125 250.886719 C 242.007812 250.964844 242.015625 251.0625 241.972656 251.148438 C 241.910156 251.269531 241.816406 251.378906 241.695312 251.480469 C 241.15625 251.914062 240.539062 252.097656 239.84375 252.027344 C 239.476562 251.988281 239.195312 251.914062 238.902344 251.714844 C 238.015625 251.113281 237.699219 250.257812 237.949219 249.140625 C 238.015625 248.839844 238.183594 248.570312 238.503906 248.574219 C 239.105469 248.578125 239.699219 248.359375 240.242188 248.089844 C 240.449219 247.992188 240.660156 247.960938 240.761719 248.183594 C 240.773438 248.203125 240.777344 248.226562 240.777344 248.25 C 240.792969 248.707031 240.789062 248.964844 240.90625 249.320312 C 241.054688 249.769531 241.285156 250.171875 241.589844 250.523438 C 241.707031 250.65625 241.863281 250.761719 241.953125 250.886719 Z M 241.953125 250.886719 " style="fill:rgb(108, 30, 32);stroke:none;color:rgb(0, 0, 0);stroke-width:1px;stroke-linecap:butt;stroke-linejoin:miter;opacity:1;font-family:&quot;Anthropic Sans&quot;, -apple-system, &quot;system-ui&quot;, &quot;Segoe UI&quot;, sans-serif;font-size:16px;font-weight:400;text-anchor:start;dominant-baseline:auto"/>
    <path d="M 242.886719 251.515625 C 242.9375 251.496094 242.996094 251.503906 243.058594 251.527344 C 243.261719 251.613281 243.417969 251.6875 243.625 251.726562 C 244.800781 251.9375 245.847656 251.660156 246.769531 250.894531 C 246.886719 250.800781 246.996094 250.804688 247.09375 250.90625 C 247.410156 251.234375 247.402344 252.105469 247.316406 252.457031 C 247.222656 252.851562 247.035156 253.199219 246.753906 253.507812 C 246.296875 254.007812 245.683594 254.234375 244.910156 254.183594 C 244.03125 254.128906 243.121094 253.515625 242.828125 252.652344 C 242.703125 252.292969 242.4375 251.648438 242.886719 251.515625 Z M 242.886719 251.515625 " style="fill:rgb(108, 30, 32);stroke:none;color:rgb(0, 0, 0);stroke-width:1px;stroke-linecap:butt;stroke-linejoin:miter;opacity:1;font-family:&quot;Anthropic Sans&quot;, -apple-system, &quot;system-ui&quot;, &quot;Segoe UI&quot;, sans-serif;font-size:16px;font-weight:400;text-anchor:start;dominant-baseline:auto"/>
    <path d="M 240.054688 252.808594 C 240.605469 252.816406 241.097656 252.707031 241.53125 252.480469 C 241.726562 252.378906 241.921875 252.367188 241.976562 252.613281 C 242.191406 253.59375 242.921875 254.425781 243.910156 254.710938 C 244.226562 254.800781 244.085938 255.113281 243.960938 255.28125 C 243.597656 255.769531 243.0625 256.046875 242.347656 256.113281 C 241.523438 256.191406 240.636719 255.90625 240.199219 255.164062 C 239.792969 254.480469 239.679688 253.746094 239.863281 252.960938 C 239.882812 252.871094 239.960938 252.808594 240.054688 252.808594 Z M 240.054688 252.808594 " style="fill:rgb(108, 30, 32);stroke:none;color:rgb(0, 0, 0);stroke-width:1px;stroke-linecap:butt;stroke-linejoin:miter;opacity:1;font-family:&quot;Anthropic Sans&quot;, -apple-system, &quot;system-ui&quot;, &quot;Segoe UI&quot;, sans-serif;font-size:16px;font-weight:400;text-anchor:start;dominant-baseline:auto"/>
  </g>
</svg>