<?xml version="1.0" encoding="UTF-8"?>
<svg
  xmlns="http://www.w3.org/2000/svg"
  width="112"
  height="80"
  viewBox="0 0 112 80"
  fill="none"
  role="img"
  aria-labelledby="logoTitle"
>
  <title id="logoTitle">Intimate Wine monogram</title>
  <g transform="translate(-334 -182)">
    <g fill="none" stroke="#2f2f2f" stroke-width="1.75" stroke-linecap="square" stroke-linejoin="round">
      <path d="M 340 261 L 340 208 C 340 194.746094 350.746094 184 364 184 C 377.253906 184 388 194.746094 388 208 L 388 210"/>
      <path d="M 340 261 L 388 261 L 388 248"/>
    </g>

    <g fill="#000000" fill-opacity="1">
      <g transform="translate(379.705766, 242.927471)">
        <g>
          <path d="M 9.96875 -5.09375 C 9.96875 -4.101562 10.054688 -3.367188 10.234375 -2.890625 C 10.410156 -2.421875 10.648438 -2.109375 10.953125 -1.953125 C 11.265625 -1.796875 11.753906 -1.660156 12.421875 -1.546875 C 13.191406 -1.421875 13.878906 -1.25 14.484375 -1.03125 L 14.4375 0 L 1.40625 0 L 1.40625 -1.015625 C 1.789062 -1.191406 2.132812 -1.3125 2.4375 -1.375 C 2.75 -1.445312 3.140625 -1.523438 3.609375 -1.609375 C 4.191406 -1.679688 4.617188 -1.789062 4.890625 -1.9375 C 5.171875 -2.09375 5.382812 -2.429688 5.53125 -2.953125 C 5.6875 -3.472656 5.765625 -4.304688 5.765625 -5.453125 L 5.765625 -20.1875 C 5.765625 -21.25 5.671875 -22.035156 5.484375 -22.546875 C 5.304688 -23.054688 5.066406 -23.382812 4.765625 -23.53125 C 4.472656 -23.675781 4.039062 -23.785156 3.46875 -23.859375 C 3 -23.941406 2.609375 -24.019531 2.296875 -24.09375 C 1.992188 -24.175781 1.671875 -24.316406 1.328125 -24.515625 L 1.375 -25.515625 L 14.359375 -25.515625 L 14.40625 -24.484375 C 14.125 -24.378906 13.726562 -24.269531 13.21875 -24.15625 C 12.5 -23.976562 11.925781 -23.796875 11.5 -23.609375 C 11.070312 -23.421875 10.707031 -23.132812 10.40625 -22.75 C 10.113281 -22.363281 9.96875 -21.835938 9.96875 -21.171875 Z M 9.96875 -5.09375 "/>
        </g>
      </g>
      <g transform="translate(393.023554, 242.927471)">
        <g>
          <path d="M 8.125 -2.265625 C 8.125 -1.796875 8.003906 -1.359375 7.765625 -0.953125 C 7.523438 -0.554688 7.195312 -0.234375 6.78125 0.015625 C 6.375 0.265625 5.921875 0.390625 5.421875 0.390625 C 4.941406 0.390625 4.492188 0.269531 4.078125 0.03125 C 3.671875 -0.207031 3.347656 -0.53125 3.109375 -0.9375 C 2.867188 -1.351562 2.75 -1.796875 2.75 -2.265625 C 2.75 -2.742188 2.867188 -3.179688 3.109375 -3.578125 C 3.347656 -3.984375 3.671875 -4.304688 4.078125 -4.546875 C 4.492188 -4.796875 4.941406 -4.921875 5.421875 -4.921875 C 5.921875 -4.921875 6.375 -4.796875 6.78125 -4.546875 C 7.195312 -4.304688 7.523438 -3.984375 7.765625 -3.578125 C 8.003906 -3.179688 8.125 -2.742188 8.125 -2.265625 Z M 8.125 -2.265625 "/>
        </g>
      </g>
      <g transform="translate(401.425358, 242.927471)">
        <g>
          <path d="M 18.296875 -20.984375 L 17.828125 -22.171875 C 17.617188 -22.703125 17.457031 -23.097656 17.34375 -23.359375 C 17.1875 -23.484375 16.648438 -23.722656 15.734375 -24.078125 C 15.015625 -24.367188 14.5 -24.582031 14.1875 -24.71875 C 13.875 -24.863281 13.71875 -25 13.71875 -25.125 C 13.71875 -25.144531 13.734375 -25.207031 13.765625 -25.3125 C 13.804688 -25.414062 13.835938 -25.484375 13.859375 -25.515625 L 26.4375 -25.515625 C 26.445312 -25.472656 26.46875 -25.40625 26.5 -25.3125 C 26.53125 -25.21875 26.546875 -25.15625 26.546875 -25.125 C 26.546875 -24.820312 26.40625 -24.625 26.125 -24.53125 C 25.84375 -24.4375 25.398438 -24.363281 24.796875 -24.3125 C 24.128906 -24.257812 23.625 -24.171875 23.28125 -24.046875 C 22.945312 -23.921875 22.78125 -23.664062 22.78125 -23.28125 C 22.78125 -23 23.515625 -20.546875 24.984375 -15.921875 C 26.453125 -11.304688 27.425781 -8.316406 27.90625 -6.953125 L 28.453125 -8.625 C 31.503906 -17.75 33.03125 -22.625 33.03125 -23.25 C 33.03125 -23.65625 32.832031 -23.941406 32.4375 -24.109375 C 32.050781 -24.273438 31.476562 -24.410156 30.71875 -24.515625 C 30.40625 -24.546875 30.097656 -24.59375 29.796875 -24.65625 C 29.492188 -24.726562 29.257812 -24.8125 29.09375 -24.90625 L 28.984375 -25.125 L 29.09375 -25.515625 L 39.21875 -25.515625 C 39.269531 -25.515625 39.332031 -25.488281 39.40625 -25.4375 C 39.488281 -25.394531 39.546875 -25.347656 39.578125 -25.296875 C 39.578125 -25.097656 39.425781 -24.941406 39.125 -24.828125 C 38.820312 -24.722656 38.335938 -24.597656 37.671875 -24.453125 C 36.691406 -24.242188 35.914062 -24.015625 35.34375 -23.765625 C 34.769531 -23.523438 34.390625 -23.160156 34.203125 -22.671875 C 34.066406 -22.265625 33.914062 -21.796875 33.75 -21.265625 C 33.59375 -20.734375 33.484375 -20.359375 33.421875 -20.140625 C 33.347656 -19.828125 33.285156 -19.59375 33.234375 -19.4375 L 27.375 -0.015625 C 27.289062 0.242188 27.015625 0.375 26.546875 0.375 C 26.335938 0.375 26.164062 0.347656 26.03125 0.296875 C 25.894531 0.242188 25.785156 0.140625 25.703125 -0.015625 C 25.453125 -0.503906 25.203125 -1.21875 24.953125 -2.15625 L 24.609375 -3.265625 L 19.046875 -19.46875 L 13.96875 -4.875 C 13.851562 -4.550781 13.691406 -4.023438 13.484375 -3.296875 C 13.234375 -2.472656 13.019531 -1.820312 12.84375 -1.34375 C 12.675781 -0.875 12.488281 -0.429688 12.28125 -0.015625 C 12.207031 0.148438 12.101562 0.257812 11.96875 0.3125 C 11.84375 0.375 11.675781 0.40625 11.46875 0.40625 C 11.070312 0.40625 10.734375 0.132812 10.453125 -0.40625 C 10.179688 -0.957031 9.910156 -1.664062 9.640625 -2.53125 L 9.4375 -3.15625 L 6.765625 -10.34375 C 5.304688 -14.289062 3.832031 -18.207031 2.34375 -22.09375 C 2.132812 -22.632812 1.832031 -23.035156 1.4375 -23.296875 C 1.039062 -23.566406 0.507812 -23.828125 -0.15625 -24.078125 C -0.65625 -24.265625 -1.035156 -24.421875 -1.296875 -24.546875 C -1.554688 -24.679688 -1.796875 -24.859375 -2.015625 -25.078125 L -1.875 -25.515625 L 10.71875 -25.515625 C 10.726562 -25.472656 10.742188 -25.410156 10.765625 -25.328125 C 10.796875 -25.242188 10.8125 -25.175781 10.8125 -25.125 C 10.8125 -24.851562 10.679688 -24.671875 10.421875 -24.578125 C 10.171875 -24.484375 9.789062 -24.398438 9.28125 -24.328125 C 8.65625 -24.253906 8.175781 -24.140625 7.84375 -23.984375 C 7.507812 -23.835938 7.34375 -23.5625 7.34375 -23.15625 C 7.34375 -22.976562 8.046875 -20.898438 9.453125 -16.921875 C 10.859375 -12.953125 12.050781 -9.617188 13.03125 -6.921875 Z M 18.296875 -20.984375 "/>
        </g>
      </g>
    </g>

    <g fill="#6c1e20" fill-opacity="1" fill-rule="nonzero">
      <path d="M 374.917969 233.511719 L 374.917969 211.175781 C 374.917969 210.941406 374.730469 210.753906 374.496094 210.753906 L 353.4375 210.753906 C 353.207031 210.753906 353.015625 210.941406 353.015625 211.175781 L 353.015625 233.511719 C 353.015625 239.550781 357.929688 244.464844 363.96875 244.464844 C 370.003906 244.464844 374.917969 239.550781 374.917969 233.511719 Z M 353.859375 233.511719 L 353.859375 211.59375 L 374.074219 211.59375 L 374.074219 233.511719 C 374.074219 239.085938 369.539062 243.621094 363.96875 243.621094 C 358.394531 243.621094 353.859375 239.085938 353.859375 233.511719 Z M 353.859375 233.511719 "/>
      <path d="M 369.1875 219.527344 C 369.414062 219.777344 369.605469 220.238281 369.585938 220.578125 C 369.578125 220.667969 369.503906 220.738281 369.414062 220.738281 C 368.730469 220.722656 368.113281 220.738281 367.566406 220.785156 C 366.929688 220.839844 366.457031 220.773438 366.003906 220.300781 C 365.539062 219.8125 365.25 219.214844 365.140625 218.5 C 365.136719 218.46875 365.109375 218.441406 365.074219 218.441406 L 364.585938 218.441406 C 364.550781 218.441406 364.523438 218.472656 364.523438 218.507812 C 364.523438 218.507812 364.523438 218.507812 364.523438 218.511719 C 364.53125 219.046875 364.457031 219.589844 364.292969 220.128906 C 364.28125 220.167969 364.296875 220.207031 364.328125 220.230469 C 364.84375 220.597656 365.214844 221.09375 365.445312 221.722656 C 365.460938 221.765625 365.46875 221.808594 365.46875 221.855469 C 365.457031 222.070312 365.386719 222.289062 365.246094 222.511719 C 365.207031 222.574219 365.132812 222.605469 365.058594 222.589844 C 364.085938 222.363281 363.164062 222.464844 362.300781 222.894531 C 362.273438 222.910156 362.238281 222.914062 362.207031 222.90625 C 362.121094 222.886719 362.046875 222.832031 361.984375 222.746094 C 361.972656 222.726562 361.964844 222.703125 361.960938 222.679688 C 361.867188 221.957031 361.488281 221.386719 360.964844 220.863281 C 360.949219 220.847656 360.933594 220.824219 360.929688 220.800781 C 360.890625 220.65625 360.929688 220.539062 361.042969 220.445312 C 361.589844 220 362.207031 219.785156 362.886719 219.796875 C 362.914062 219.796875 362.941406 219.785156 362.957031 219.765625 C 363.121094 219.59375 363.164062 219.207031 363.175781 218.972656 C 363.210938 218.027344 362.832031 217.148438 362.414062 216.273438 C 361.976562 215.359375 363.328125 214.789062 363.765625 215.699219 C 364.027344 216.238281 364.238281 216.8125 364.402344 217.425781 C 364.410156 217.453125 364.4375 217.476562 364.46875 217.476562 L 365.066406 217.476562 C 365.105469 217.476562 365.140625 217.445312 365.148438 217.40625 C 365.324219 216.316406 365.863281 215.585938 366.757812 215.210938 C 367.519531 214.894531 368.554688 214.871094 369.367188 215.027344 C 369.441406 215.042969 369.492188 215.113281 369.484375 215.191406 C 369.433594 215.632812 369.296875 216.035156 369.070312 216.394531 C 369.058594 216.414062 369.066406 216.4375 369.082031 216.449219 C 369.089844 216.453125 369.09375 216.453125 369.101562 216.453125 C 369.738281 216.464844 370.195312 216.5 370.703125 216.839844 C 371.1875 217.164062 371.519531 217.539062 371.976562 218.03125 C 372.070312 218.136719 372.070312 218.242188 371.96875 218.351562 C 371.28125 219.082031 370.195312 219.453125 369.21875 219.464844 C 369.195312 219.464844 369.179688 219.480469 369.179688 219.503906 C 369.179688 219.511719 369.183594 219.523438 369.1875 219.527344 Z M 369.1875 219.527344 "/>
      <path d="M 355.792969 222.070312 C 356.457031 220.964844 357.757812 220.421875 359.023438 220.6875 C 360.148438 220.925781 361.050781 221.816406 361.175781 222.953125 C 361.300781 224.054688 360.722656 225.164062 359.675781 225.617188 C 358.527344 226.113281 357.421875 226.023438 356.359375 225.34375 C 356.171875 225.222656 356.011719 225.058594 355.878906 224.851562 C 355.277344 223.90625 355.246094 222.980469 355.792969 222.070312 Z M 355.792969 222.070312 "/>
      <path d="M 366.804688 221.507812 C 366.832031 221.496094 366.859375 221.488281 366.886719 221.492188 C 367.71875 221.625 368.707031 221.4375 369.460938 221.4375 C 369.78125 221.4375 370.097656 221.625 370.382812 221.832031 C 371.046875 222.3125 371.347656 222.953125 371.289062 223.75 C 371.21875 224.679688 370.527344 225.5 369.605469 225.707031 C 369.0625 225.832031 368.203125 225.808594 367.792969 225.386719 C 367.707031 225.300781 367.675781 225.097656 367.621094 224.933594 C 367.347656 224.179688 366.871094 223.5625 366.183594 223.082031 C 366.066406 223 366.027344 222.875 366.0625 222.707031 C 366.152344 222.316406 366.414062 221.703125 366.804688 221.507812 Z M 366.804688 221.507812 "/>
      <path d="M 366.957031 225.828125 C 366.992188 226.195312 366.949219 226.550781 366.832031 226.902344 C 366.714844 227.253906 366.53125 227.570312 366.28125 227.851562 C 366.035156 228.132812 365.738281 228.359375 365.394531 228.53125 C 365.054688 228.703125 364.691406 228.804688 364.308594 228.839844 C 363.925781 228.871094 363.550781 228.835938 363.183594 228.726562 C 362.816406 228.617188 362.484375 228.445312 362.191406 228.210938 C 361.898438 227.976562 361.664062 227.695312 361.488281 227.371094 C 361.3125 227.046875 361.207031 226.699219 361.175781 226.335938 C 361.144531 225.96875 361.183594 225.613281 361.300781 225.261719 C 361.417969 224.910156 361.601562 224.59375 361.851562 224.3125 C 362.101562 224.03125 362.394531 223.804688 362.738281 223.632812 C 363.078125 223.460938 363.441406 223.359375 363.824219 223.328125 C 364.210938 223.292969 364.585938 223.332031 364.949219 223.4375 C 365.316406 223.546875 365.648438 223.71875 365.941406 223.953125 C 366.234375 224.1875 366.46875 224.46875 366.644531 224.792969 C 366.824219 225.117188 366.925781 225.464844 366.957031 225.828125 Z M 366.957031 225.828125 "/>
      <path d="M 360 226.339844 C 360.191406 226.242188 360.367188 226.386719 360.382812 226.582031 C 360.433594 227.230469 360.710938 227.84375 361.210938 228.421875 C 361.308594 228.535156 361.296875 228.664062 361.179688 228.804688 C 360.378906 229.78125 358.882812 229.988281 357.714844 229.730469 C 357.671875 229.722656 357.628906 229.707031 357.59375 229.683594 C 356.898438 229.242188 356.652344 228.351562 356.570312 227.558594 C 356.539062 227.261719 356.59375 226.980469 356.683594 226.722656 C 356.757812 226.496094 356.988281 226.480469 357.207031 226.582031 C 357.304688 226.628906 357.441406 226.667969 357.613281 226.695312 C 358.464844 226.835938 359.261719 226.714844 360 226.339844 Z M 360 226.339844 "/>
      <path d="M 366.210938 229.503906 C 366.09375 229.371094 366.019531 229.175781 366.1875 229.0625 C 366.8125 228.628906 367.273438 228.066406 367.566406 227.371094 C 367.660156 227.15625 367.710938 226.976562 367.726562 226.832031 C 367.753906 226.558594 367.875 226.339844 368.15625 226.433594 C 368.609375 226.578125 369.054688 226.613281 369.5 226.53125 C 369.796875 226.476562 369.957031 226.828125 370.070312 227.085938 C 370.382812 227.789062 370.367188 228.484375 370.023438 229.171875 C 369.824219 229.570312 369.597656 229.824219 369.207031 230.042969 C 368.507812 230.433594 367.761719 230.449219 366.972656 230.09375 C 366.714844 229.976562 366.460938 229.777344 366.210938 229.503906 Z M 366.210938 229.503906 "/>
      <path d="M 367.402344 231.0625 C 367.40625 231.097656 367.402344 231.125 367.394531 231.144531 C 366.566406 233.320312 363.535156 233.574219 362.300781 231.601562 C 361.910156 230.976562 361.839844 230.234375 361.980469 229.546875 C 362 229.4375 362.066406 229.355469 362.171875 229.304688 C 362.230469 229.273438 362.328125 229.292969 362.46875 229.355469 C 363.277344 229.722656 364.132812 229.800781 365.035156 229.59375 C 365.078125 229.585938 365.160156 229.613281 365.285156 229.683594 C 365.308594 229.695312 365.328125 229.714844 365.347656 229.734375 C 365.832031 230.375 366.503906 230.878906 367.308594 230.964844 C 367.359375 230.972656 367.398438 231.011719 367.402344 231.0625 Z M 367.402344 231.0625 "/>
      <path d="M 362.324219 232.890625 C 362.378906 232.964844 362.386719 233.066406 362.34375 233.148438 C 362.28125 233.269531 362.1875 233.382812 362.0625 233.480469 C 361.523438 233.917969 360.90625 234.097656 360.214844 234.027344 C 359.847656 233.992188 359.566406 233.917969 359.269531 233.71875 C 358.386719 233.117188 358.066406 232.257812 358.316406 231.140625 C 358.382812 230.84375 358.550781 230.570312 358.871094 230.574219 C 359.476562 230.582031 360.066406 230.359375 360.609375 230.09375 C 360.816406 229.992188 361.027344 229.960938 361.132812 230.183594 C 361.140625 230.207031 361.144531 230.230469 361.148438 230.253906 C 361.160156 230.710938 361.15625 230.96875 361.273438 231.320312 C 361.425781 231.773438 361.652344 232.175781 361.960938 232.523438 C 362.074219 232.660156 362.234375 232.765625 362.324219 232.890625 Z M 362.324219 232.890625 "/>
      <path d="M 363.253906 233.515625 C 363.308594 233.5 363.367188 233.503906 363.429688 233.53125 C 363.628906 233.613281 363.789062 233.6875 363.996094 233.726562 C 365.167969 233.941406 366.21875 233.664062 367.140625 232.898438 C 367.253906 232.800781 367.363281 232.804688 367.464844 232.910156 C 367.78125 233.234375 367.769531 234.109375 367.6875 234.457031 C 367.59375 234.851562 367.402344 235.203125 367.121094 235.507812 C 366.664062 236.011719 366.050781 236.234375 365.28125 236.1875 C 364.398438 236.128906 363.492188 235.519531 363.195312 234.652344 C 363.074219 234.292969 362.804688 233.652344 363.253906 233.515625 Z M 363.253906 233.515625 "/>
      <path d="M 360.421875 234.8125 C 360.972656 234.820312 361.46875 234.710938 361.902344 234.480469 C 362.097656 234.378906 362.292969 234.371094 362.347656 234.617188 C 362.558594 235.59375 363.289062 236.429688 364.28125 236.710938 C 364.597656 236.804688 364.453125 237.113281 364.328125 237.28125 C 363.96875 237.773438 363.429688 238.050781 362.71875 238.117188 C 361.894531 238.191406 361.003906 237.910156 360.566406 237.167969 C 360.160156 236.480469 360.050781 235.746094 360.230469 234.960938 C 360.253906 234.875 360.332031 234.8125 360.421875 234.8125 Z M 360.421875 234.8125 "/>
    </g>

    <path
      d="M 364.34375 261.058594 L 364.34375 244.464844"
      fill="none"
      stroke="#6c1e20"
      stroke-width="0.85"
      stroke-linecap="square"
    />
  </g>
</svg>
