<svg width="100%" viewBox="231 228 25 52" version="1.1" xmlns="http://www.w3.org/2000/svg">
  <title>Intimate Wine Glass</title>
  <path
    d="M 243.972656 279.054687 L 243.972656 262.464845"
    fill="none"
    stroke="#6c1e20"
    stroke-width="1"
    stroke-linecap="butt"
    stroke-linejoin="miter"
  />
  <g fill="#6c1e20" fill-rule="nonzero">
    <path d="M 254.546875 251.511719 L 254.546875 229.171875 C 254.546875 228.9375 254.359375 228.75 254.128906 228.75 L 233.070312 228.75 C 232.835938 228.75 232.648438 228.9375 232.648438 229.171875 L 232.648438 251.511719 C 232.648438 257.546875 237.558594 262.460938 243.597656 262.460938 C 249.636719 262.460938 254.546875 257.546875 254.546875 251.511719 Z M 233.492188 251.511719 L 233.492188 229.59375 L 253.707031 229.59375 L 253.707031 251.511719 C 253.707031 257.085938 249.171875 261.617188 243.597656 261.617188 C 238.023438 261.617188 233.492188 257.085938 233.492188 251.511719 Z M 233.492188 251.511719 " />
    <path d="M 248.820312 237.527344 C 249.046875 237.777344 249.238281 238.234375 249.214844 238.578125 C 249.210938 238.667969 249.132812 238.738281 249.042969 238.734375 C 248.359375 238.71875 247.742188 238.734375 247.199219 238.78125 C 246.558594 238.835938 246.085938 238.773438 245.632812 238.296875 C 245.167969 237.8125 244.882812 237.210938 244.773438 236.496094 C 244.769531 236.464844 244.738281 236.441406 244.707031 236.441406 L 244.21875 236.441406 C 244.183594 236.441406 244.152344 236.46875 244.152344 236.507812 C 244.164062 237.046875 244.085938 237.585938 243.925781 238.125 C 243.914062 238.164062 243.925781 238.207031 243.960938 238.230469 C 244.476562 238.597656 244.847656 239.09375 245.078125 239.71875 C 245.09375 239.761719 245.097656 239.808594 245.097656 239.855469 C 245.089844 240.070312 245.015625 240.289062 244.875 240.511719 C 244.835938 240.570312 244.761719 240.601562 244.691406 240.585938 C 243.714844 240.363281 242.796875 240.464844 241.933594 240.890625 C 241.902344 240.90625 241.871094 240.910156 241.839844 240.902344 C 241.75 240.886719 241.675781 240.832031 241.617188 240.746094 C 241.601562 240.722656 241.59375 240.703125 241.589844 240.675781 C 241.496094 239.953125 241.121094 239.382812 240.597656 238.863281 C 240.578125 238.84375 240.566406 238.820312 240.558594 238.796875 C 240.519531 238.65625 240.558594 238.539062 240.671875 238.445312 C 241.222656 238 241.835938 237.78125 242.515625 237.796875 C 242.542969 237.796875 242.570312 237.785156 242.589844 237.765625 C 242.75 237.589844 242.796875 237.203125 242.804688 236.96875 C 242.84375 236.023438 242.464844 235.148438 242.046875 234.273438 C 241.609375 233.355469 242.960938 232.785156 243.398438 233.695312 C 243.65625 234.234375 243.867188 234.8125 244.035156 235.421875 C 244.042969 235.453125 244.066406 235.472656 244.097656 235.472656 L 244.695312 235.472656 C 244.738281 235.472656 244.773438 235.441406 244.777344 235.402344 C 244.957031 234.316406 245.492188 233.585938 246.390625 233.210938 C 247.148438 232.890625 248.183594 232.867188 248.996094 233.027344 C 249.074219 233.039062 249.125 233.109375 249.117188 233.1875 C 249.066406 233.632812 248.925781 234.035156 248.703125 234.394531 C 248.691406 234.410156 248.695312 234.433594 248.714844 234.445312 C 248.71875 234.449219 248.726562 234.453125 248.734375 234.453125 C 249.367188 234.460938 249.824219 234.496094 250.332031 234.839844 C 250.816406 235.164062 251.148438 235.539062 251.605469 236.03125 C 251.703125 236.132812 251.699219 236.238281 251.597656 236.347656 C 250.914062 237.082031 249.828125 237.449219 248.847656 237.460938 C 248.828125 237.460938 248.808594 237.480469 248.808594 237.5 C 248.808594 237.511719 248.8125 237.519531 248.820312 237.527344 Z M 248.820312 237.527344 " />
    <path d="M 235.421875 240.070312 C 236.085938 238.960938 237.386719 238.421875 238.652344 238.6875 C 239.777344 238.925781 240.679688 239.816406 240.808594 240.949219 C 240.933594 242.054688 240.355469 243.160156 239.308594 243.613281 C 238.160156 244.113281 237.054688 244.019531 235.992188 243.339844 C 235.804688 243.21875 235.644531 243.054688 235.511719 242.851562 C 234.90625 241.90625 234.878906 240.976562 235.421875 240.070312 Z M 235.421875 240.070312 " />
    <path d="M 246.4375 239.503906 C 246.460938 239.492188 246.488281 239.488281 246.515625 239.492188 C 247.351562 239.621094 248.335938 239.4375 249.09375 239.433594 C 249.410156 239.433594 249.730469 239.625 250.015625 239.832031 C 250.679688 240.3125 250.980469 240.949219 250.917969 241.75 C 250.847656 242.675781 250.15625 243.496094 249.238281 243.707031 C 248.695312 243.828125 247.832031 243.804688 247.421875 243.382812 C 247.335938 243.296875 247.308594 243.09375 247.25 242.933594 C 246.980469 242.179688 246.503906 241.558594 245.816406 241.078125 C 245.699219 240.996094 245.660156 240.871094 245.695312 240.707031 C 245.785156 240.3125 246.046875 239.699219 246.4375 239.503906 Z M 246.4375 239.503906 " />
    <path d="M 246.589844 243.828125 C 246.621094 244.191406 246.578125 244.550781 246.460938 244.902344 C 246.34375 245.25 246.160156 245.566406 245.914062 245.851562 C 245.664062 246.132812 245.371094 246.359375 245.027344 246.53125 C 244.683594 246.699219 244.324219 246.800781 243.9375 246.835938 C 243.554688 246.871094 243.179688 246.832031 242.8125 246.722656 C 242.449219 246.613281 242.117188 246.441406 241.824219 246.207031 C 241.53125 245.972656 241.292969 245.695312 241.117188 245.367188 C 240.941406 245.042969 240.835938 244.699219 240.804688 244.332031 C 240.773438 243.96875 240.816406 243.609375 240.933594 243.257812 C 241.050781 242.910156 241.234375 242.59375 241.480469 242.308594 C 241.730469 242.027344 242.027344 241.800781 242.367188 241.628906 C 242.710938 241.460938 243.074219 241.359375 243.457031 241.324219 C 243.839844 241.289062 244.214844 241.328125 244.582031 241.4375 C 244.949219 241.546875 245.277344 241.71875 245.570312 241.953125 C 245.867188 242.1875 246.101562 242.464844 246.277344 242.792969 C 246.453125 243.117188 246.558594 243.460938 246.589844 243.828125 Z M 246.589844 243.828125 " />
    <path d="M 239.628906 244.335938 C 239.824219 244.238281 239.996094 244.382812 240.011719 244.578125 C 240.066406 245.226562 240.339844 245.839844 240.839844 246.417969 C 240.9375 246.53125 240.925781 246.660156 240.808594 246.804688 C 240.007812 247.777344 238.511719 247.984375 237.34375 247.730469 C 237.300781 247.71875 237.261719 247.703125 237.226562 247.679688 C 236.527344 247.238281 236.28125 246.347656 236.203125 245.554688 C 236.171875 245.261719 236.222656 244.980469 236.3125 244.71875 C 236.390625 244.492188 236.617188 244.476562 236.835938 244.582031 C 236.9375 244.628906 237.070312 244.667969 237.242188 244.695312 C 238.09375 244.832031 238.890625 244.714844 239.628906 244.335938 Z M 239.628906 244.335938 " />
    <path d="M 245.84375 247.5 C 245.722656 247.371094 245.652344 247.175781 245.820312 247.058594 C 246.441406 246.628906 246.902344 246.0625 247.199219 245.367188 C 247.289062 245.15625 247.34375 244.976562 247.355469 244.828125 C 247.382812 244.554688 247.507812 244.339844 247.789062 244.429688 C 248.238281 244.578125 248.6875 244.609375 249.128906 244.527344 C 249.425781 244.472656 249.585938 244.824219 249.703125 245.082031 C 250.015625 245.785156 250 246.484375 249.652344 247.171875 C 249.453125 247.566406 249.230469 247.820312 248.839844 248.039062 C 248.136719 248.429688 247.394531 248.449219 246.605469 248.089844 C 246.347656 247.972656 246.09375 247.777344 245.84375 247.5 Z M 245.84375 247.5 " />
    <path d="M 247.035156 249.058594 C 247.035156 249.09375 247.035156 249.121094 247.027344 249.144531 C 246.199219 251.316406 243.167969 251.570312 241.933594 249.597656 C 241.542969 248.976562 241.46875 248.234375 241.609375 247.542969 C 241.632812 247.4375 241.695312 247.355469 241.804688 247.300781 C 241.859375 247.273438 241.960938 247.289062 242.101562 247.355469 C 242.910156 247.71875 243.765625 247.800781 244.664062 247.589844 C 244.707031 247.582031 244.792969 247.613281 244.917969 247.679688 C 244.941406 247.691406 244.960938 247.710938 244.976562 247.730469 C 245.464844 248.371094 246.132812 248.878906 246.941406 248.964844 C 246.988281 248.96875 247.027344 249.007812 247.035156 249.058594 Z M 247.035156 249.058594 " />
    <path d="M 241.953125 250.886719 C 242.007812 250.964844 242.015625 251.0625 241.972656 251.148438 C 241.910156 251.269531 241.816406 251.378906 241.695312 251.480469 C 241.15625 251.914062 240.539062 252.097656 239.84375 252.027344 C 239.476562 251.988281 239.195312 251.914062 238.902344 251.714844 C 238.015625 251.113281 237.699219 250.257812 237.949219 249.140625 C 238.015625 248.839844 238.183594 248.570312 238.503906 248.574219 C 239.105469 248.578125 239.699219 248.359375 240.242188 248.089844 C 240.449219 247.992188 240.660156 247.960938 240.761719 248.183594 C 240.773438 248.203125 240.777344 248.226562 240.777344 248.25 C 240.792969 248.707031 240.789062 248.964844 240.90625 249.320312 C 241.054688 249.769531 241.285156 250.171875 241.589844 250.523438 C 241.707031 250.65625 241.863281 250.761719 241.953125 250.886719 Z M 241.953125 250.886719 " />
    <path d="M 242.886719 251.515625 C 242.9375 251.496094 242.996094 251.503906 243.058594 251.527344 C 243.261719 251.613281 243.417969 251.6875 243.625 251.726562 C 244.800781 251.9375 245.847656 251.660156 246.769531 250.894531 C 246.886719 250.800781 246.996094 250.804688 247.09375 250.90625 C 247.410156 251.234375 247.402344 252.105469 247.316406 252.457031 C 247.222656 252.851562 247.035156 253.199219 246.753906 253.507812 C 246.296875 254.007812 245.683594 254.234375 244.910156 254.183594 C 244.03125 254.128906 243.121094 253.515625 242.828125 252.652344 C 242.703125 252.292969 242.4375 251.648438 242.886719 251.515625 Z M 242.886719 251.515625 " />
    <path d="M 240.054688 252.808594 C 240.605469 252.816406 241.097656 252.707031 241.53125 252.480469 C 241.726562 252.378906 241.921875 252.367188 241.976562 252.613281 C 242.191406 253.59375 242.921875 254.425781 243.910156 254.710938 C 244.226562 254.800781 244.085938 255.113281 243.960938 255.28125 C 243.597656 255.769531 243.0625 256.046875 242.347656 256.113281 C 241.523438 256.191406 240.636719 255.90625 240.199219 255.164062 C 239.792969 254.480469 239.679688 253.746094 239.863281 252.960938 C 239.882812 252.871094 239.960938 252.808594 240.054688 252.808594 Z M 240.054688 252.808594 " />
  </g>
</svg>
