<?xml version="1.0" encoding="UTF-8"?>
<svg width="1346px" height="352px" viewBox="0 0 1346 352" version="1.1" xmlns="http://www.w3.org/2000/svg" xmlns:xlink="http://www.w3.org/1999/xlink">
    <title>hazharLogo</title>
    <g id="Page-1" stroke="none" stroke-width="1" fill="none" fill-rule="evenodd">
        <g id="horizontalLogoBlack">
            <g id="Pink">
                <path d="M120.695116,0 L226.485823,0 C256.3092,-5.47846538e-15 280.485823,24.1766235 280.485823,54 L280.485823,164.723545 C280.485823,184.506339 264.4487,200.543462 244.665906,200.543462 C235.085336,200.543462 225.904046,196.705515 219.173643,189.88723 L157.954847,127.869062 C157.892592,127.805994 157.830181,127.743079 157.767616,127.680318 L94.1736435,63.8872298 C79.571957,49.2398247 79.6090192,25.5287512 94.2564243,10.9270647 C101.275992,3.92940669 110.783429,8.92617484e-15 120.695116,0 Z" id="Rectangle" fill="#EA577B" transform="translate(155.485823, 126.000000) rotate(180.000000) translate(-155.485823, -126.000000) "></path>
                <path d="M90.2092932,100 L196,100 C225.823376,100 250,124.176624 250,154 L250,264.723545 C250,284.506339 233.962877,300.543462 214.180083,300.543462 C204.599513,300.543462 195.418222,296.705515 188.68782,289.88723 L127.469024,227.869062 C127.406768,227.805994 127.344358,227.743079 127.281792,227.680318 L63.6878202,163.88723 C49.0861337,149.239825 49.1231959,125.528751 63.770601,110.927065 C70.790169,103.929407 80.2976055,100 90.2092932,100 Z" id="Rectangle" fill="#3DBCF8" opacity="0.666829427"></path>
            </g>
            <g id="ZeroInbox.ai" transform="translate(307.169678, 94.179688)" fill="#000000" fill-rule="nonzero">
                <path d="M82.5366211,120.121094 C82.5366211,121.924154 82.458903,123.447428 82.3034668,124.690918 C82.1480306,125.934408 81.9148763,126.944743 81.6040039,127.721924 C81.2931315,128.499105 80.904541,129.043132 80.4382324,129.354004 C79.9719238,129.664876 79.4589844,129.820312 78.8994141,129.820312 L7.74072266,129.820312 C5.25374349,129.820312 3.34187826,129.105306 2.00512695,127.675293 C0.668375651,126.24528 0,124.162435 0,121.426758 L0,117.323242 C0,116.079753 0.077718099,114.945068 0.233154297,113.919189 C0.388590495,112.893311 0.652832031,111.851888 1.02587891,110.794922 C1.39892578,109.737956 1.94295247,108.587728 2.65795898,107.344238 C3.37296549,106.100749 4.25895182,104.608561 5.31591797,102.867676 L52.1333008,28.6313477 L5.68896484,28.6313477 C4.94287109,28.6313477 4.30558268,28.4603678 3.77709961,28.1184082 C3.24861654,27.7764486 2.81339518,27.2324219 2.47143555,26.4863281 C2.12947591,25.7402344 1.88077799,24.7454427 1.7253418,23.5019531 C1.5699056,22.2584635 1.4921875,20.766276 1.4921875,19.0253906 C1.4921875,17.1601562 1.5699056,15.5902507 1.7253418,14.3156738 C1.88077799,13.041097 2.12947591,12.0152181 2.47143555,11.2380371 C2.81339518,10.4608561 3.24861654,9.91682943 3.77709961,9.60595703 C4.30558268,9.29508464 4.94287109,9.13964844 5.68896484,9.13964844 L72.3710938,9.13964844 C74.9202474,9.13964844 76.8010254,9.79248047 78.0134277,11.0981445 C79.2258301,12.4038086 79.8320312,14.2379557 79.8320312,16.6005859 L79.8320312,21.1704102 C79.8320312,22.8491211 79.7543132,24.2946777 79.598877,25.5070801 C79.4434408,26.7194824 79.1636556,27.9007975 78.7595215,29.0510254 C78.3553874,30.2012533 77.8113607,31.3825684 77.1274414,32.5949707 C76.4435221,33.807373 75.5730794,35.2529297 74.5161133,36.9316406 L28.4448242,110.14209 L78.8994141,110.14209 C80.0807292,110.14209 80.9822591,110.888184 81.6040039,112.380371 C82.2257487,113.872559 82.5366211,116.452799 82.5366211,120.121094 Z" id="Path"></path>
                <path d="M178.223145,82.6298828 C178.223145,85.4899089 177.585856,87.6038411 176.311279,88.9716797 C175.036702,90.3395182 173.280273,91.0234375 171.041992,91.0234375 L120.400879,91.0234375 C120.400879,94.5673828 120.820557,97.7849121 121.659912,100.676025 C122.499268,103.567139 123.836019,106.023031 125.670166,108.043701 C127.504313,110.064372 129.866943,111.60319 132.758057,112.660156 C135.64917,113.717122 139.115397,114.245605 143.156738,114.245605 C147.260254,114.245605 150.866374,113.950277 153.975098,113.359619 C157.083822,112.768962 159.772868,112.11613 162.042236,111.401123 C164.311605,110.686117 166.192383,110.033285 167.68457,109.442627 C169.176758,108.851969 170.38916,108.556641 171.321777,108.556641 C171.881348,108.556641 172.347656,108.665446 172.720703,108.883057 C173.09375,109.100667 173.404622,109.489258 173.65332,110.048828 C173.902018,110.608398 174.072998,111.401123 174.16626,112.427002 C174.259521,113.452881 174.306152,114.743001 174.306152,116.297363 C174.306152,117.665202 174.275065,118.830973 174.212891,119.794678 C174.150716,120.758382 174.057454,121.582194 173.933105,122.266113 C173.808757,122.950033 173.622233,123.525146 173.373535,123.991455 C173.124837,124.457764 172.798421,124.908529 172.394287,125.34375 C171.990153,125.778971 170.886556,126.369629 169.083496,127.115723 C167.280436,127.861816 164.97998,128.592367 162.182129,129.307373 C159.384277,130.02238 156.182292,130.644124 152.576172,131.172607 C148.970052,131.70109 145.115234,131.965332 141.011719,131.965332 C133.612956,131.965332 127.131266,131.032715 121.56665,129.16748 C116.002035,127.302246 111.354492,124.473307 107.624023,120.680664 C103.893555,116.888021 101.111247,112.100586 99.2770996,106.318359 C97.4429525,100.536133 96.5258789,93.7591146 96.5258789,85.9873047 C96.5258789,78.5885417 97.4895833,71.9203288 99.4169922,65.982666 C101.344401,60.0450033 104.142253,55.0088704 107.810547,50.8742676 C111.478841,46.7396647 115.93986,43.5843099 121.193604,41.4082031 C126.447347,39.2320964 132.369466,38.144043 138.959961,38.144043 C145.923503,38.144043 151.876709,39.1699219 156.81958,41.2216797 C161.762451,43.2734375 165.819336,46.1179199 168.990234,49.755127 C172.161133,53.392334 174.492676,57.6979167 175.984863,62.671875 C177.477051,67.6458333 178.223145,73.055013 178.223145,78.8994141 L178.223145,82.6298828 Z M155.467285,75.9150391 C155.653809,69.3245443 154.332601,64.1485189 151.503662,60.3869629 C148.674723,56.6254069 144.306966,54.7446289 138.400391,54.7446289 C135.416016,54.7446289 132.820231,55.3041992 130.613037,56.4233398 C128.405843,57.5424805 126.571696,59.0502116 125.110596,60.9465332 C123.649495,62.8428548 122.530355,65.0811361 121.753174,67.661377 C120.975993,70.2416178 120.525228,72.9928385 120.400879,75.9150391 L155.467285,75.9150391 Z" id="Shape"></path>
                <path d="M256.936035,51.2006836 C256.936035,53.4389648 256.873861,55.273112 256.749512,56.703125 C256.625163,58.133138 256.438639,59.2522786 256.189941,60.0605469 C255.941243,60.8688151 255.614827,61.4283854 255.210693,61.7392578 C254.806559,62.0501302 254.29362,62.2055664 253.671875,62.2055664 C253.174479,62.2055664 252.614909,62.0967611 251.993164,61.8791504 C251.371419,61.6615397 250.671956,61.4283854 249.894775,61.1796875 C249.117594,60.9309896 248.262695,60.6978353 247.330078,60.4802246 C246.397461,60.2626139 245.371582,60.1538086 244.252441,60.1538086 C242.946777,60.1538086 241.641113,60.4180501 240.335449,60.9465332 C239.029785,61.4750163 237.67749,62.2988281 236.278564,63.4179688 C234.879639,64.5371094 233.418538,66.0292969 231.895264,67.8945312 C230.371989,69.7597656 228.739909,72.0602214 226.999023,74.7958984 L226.999023,126.649414 C226.999023,127.271159 226.8125,127.815186 226.439453,128.281494 C226.066406,128.747803 225.429118,129.136393 224.527588,129.447266 C223.626058,129.758138 222.429199,129.991292 220.937012,130.146729 C219.444824,130.302165 217.548503,130.379883 215.248047,130.379883 C212.947591,130.379883 211.05127,130.302165 209.559082,130.146729 C208.066895,129.991292 206.870036,129.758138 205.968506,129.447266 C205.066976,129.136393 204.429688,128.747803 204.056641,128.281494 C203.683594,127.815186 203.49707,127.271159 203.49707,126.649414 L203.49707,43.4599609 C203.49707,42.8382161 203.652507,42.2941895 203.963379,41.8278809 C204.274251,41.3615723 204.833822,40.9729818 205.64209,40.6621094 C206.450358,40.351237 207.491781,40.1180827 208.766357,39.9626465 C210.040934,39.8072103 211.641927,39.7294922 213.569336,39.7294922 C215.558919,39.7294922 217.206543,39.8072103 218.512207,39.9626465 C219.817871,40.1180827 220.828206,40.351237 221.543213,40.6621094 C222.258219,40.9729818 222.771159,41.3615723 223.082031,41.8278809 C223.392904,42.2941895 223.54834,42.8382161 223.54834,43.4599609 L223.54834,53.8120117 C225.724447,50.7032878 227.776204,48.1385905 229.703613,46.1179199 C231.631022,44.0972493 233.465169,42.4962565 235.206055,41.3149414 C236.94694,40.1336263 238.687826,39.3098145 240.428711,38.8435059 C242.169596,38.3771973 243.910482,38.144043 245.651367,38.144043 C246.459635,38.144043 247.330078,38.1906738 248.262695,38.2839355 C249.195312,38.3771973 250.159017,38.5326335 251.153809,38.7502441 C252.1486,38.9678548 253.019043,39.2165527 253.765137,39.4963379 C254.51123,39.776123 255.055257,40.0714518 255.397217,40.3823242 C255.739176,40.6931966 255.987874,41.0351562 256.143311,41.4082031 C256.298747,41.78125 256.438639,42.2941895 256.562988,42.9470215 C256.687337,43.5998535 256.780599,44.5791016 256.842773,45.8847656 C256.904948,47.1904297 256.936035,48.9624023 256.936035,51.2006836 Z" id="Path"></path>
                <path d="M359.150879,84.215332 C359.150879,91.3032227 358.218262,97.7693685 356.353027,103.61377 C354.487793,109.458171 351.658854,114.494303 347.866211,118.722168 C344.073568,122.950033 339.31722,126.214193 333.597168,128.514648 C327.877116,130.815104 321.193359,131.965332 313.545898,131.965332 C306.147135,131.965332 299.712077,130.939453 294.240723,128.887695 C288.769368,126.835938 284.230632,123.851562 280.624512,119.93457 C277.018392,116.017578 274.344889,111.199056 272.604004,105.479004 C270.863118,99.7589518 269.992676,93.2306315 269.992676,85.894043 C269.992676,78.8061523 270.940837,72.3244629 272.837158,66.4489746 C274.73348,60.5734863 277.577962,55.5373535 281.370605,51.3405762 C285.163249,47.1437988 289.904053,43.8951823 295.593018,41.5947266 C301.281982,39.2942708 307.950195,38.144043 315.597656,38.144043 C323.058594,38.144043 329.52474,39.1543783 334.996094,41.1750488 C340.467448,43.1957194 344.990641,46.1645508 348.565674,50.081543 C352.140706,53.9985352 354.798665,58.8170573 356.539551,64.5371094 C358.280436,70.2571615 359.150879,76.816569 359.150879,84.215332 Z M334.996094,85.1479492 C334.996094,81.0444336 334.669678,77.267334 334.016846,73.8166504 C333.364014,70.3659668 332.260417,67.3660482 330.706055,64.8168945 C329.151693,62.2677409 327.084391,60.2781576 324.50415,58.8481445 C321.92391,57.4181315 318.675293,56.703125 314.758301,56.703125 C311.27653,56.703125 308.22998,57.3404134 305.618652,58.6149902 C303.007324,59.8895671 300.862305,61.7548014 299.183594,64.2106934 C297.504883,66.6665853 296.24585,69.619873 295.406494,73.0705566 C294.567139,76.5212402 294.147461,80.453776 294.147461,84.8681641 C294.147461,88.9716797 294.489421,92.7487793 295.17334,96.1994629 C295.857259,99.6501465 296.960856,102.650065 298.484131,105.199219 C300.007406,107.748372 302.074707,109.722412 304.686035,111.121338 C307.297363,112.520264 310.530436,113.219727 314.385254,113.219727 C317.929199,113.219727 321.006836,112.582438 323.618164,111.307861 C326.229492,110.033285 328.374512,108.183594 330.053223,105.758789 C331.731934,103.333984 332.975423,100.39624 333.783691,96.9455566 C334.59196,93.494873 334.996094,89.5623372 334.996094,85.1479492 Z" id="Shape"></path>
                <path d="M409.69873,126.462891 C409.69873,127.084635 409.496663,127.644206 409.092529,128.141602 C408.688395,128.638997 408.02002,129.043132 407.087402,129.354004 C406.154785,129.664876 404.911296,129.913574 403.356934,130.100098 C401.802572,130.286621 399.812988,130.379883 397.388184,130.379883 C395.025553,130.379883 393.051514,130.286621 391.466064,130.100098 C389.880615,129.913574 388.621582,129.664876 387.688965,129.354004 C386.756348,129.043132 386.087972,128.638997 385.683838,128.141602 C385.279704,127.644206 385.077637,127.084635 385.077637,126.462891 L385.077637,12.4970703 C385.077637,11.8753255 385.279704,11.3157552 385.683838,10.8183594 C386.087972,10.3209635 386.771891,9.91682943 387.735596,9.60595703 C388.6993,9.29508464 389.958333,9.04638672 391.512695,8.85986328 C393.067057,8.67333984 395.025553,8.58007812 397.388184,8.58007812 C399.812988,8.58007812 401.802572,8.67333984 403.356934,8.85986328 C404.911296,9.04638672 406.154785,9.29508464 407.087402,9.60595703 C408.02002,9.91682943 408.688395,10.3209635 409.092529,10.8183594 C409.496663,11.3157552 409.69873,11.8753255 409.69873,12.4970703 L409.69873,126.462891 Z" id="Path"></path>
                <path d="M520.027344,126.649414 C520.027344,127.271159 519.84082,127.815186 519.467773,128.281494 C519.094727,128.747803 518.472982,129.136393 517.602539,129.447266 C516.732096,129.758138 515.535238,129.991292 514.011963,130.146729 C512.488688,130.302165 510.60791,130.379883 508.369629,130.379883 C506.069173,130.379883 504.157308,130.302165 502.634033,130.146729 C501.110758,129.991292 499.9139,129.758138 499.043457,129.447266 C498.173014,129.136393 497.55127,128.747803 497.178223,128.281494 C496.805176,127.815186 496.618652,127.271159 496.618652,126.649414 L496.618652,79.1791992 C496.618652,75.1378581 496.323324,71.9669596 495.732666,69.6665039 C495.142008,67.3660482 494.287109,65.3920085 493.167969,63.7443848 C492.048828,62.0967611 490.603271,60.8221842 488.831299,59.9206543 C487.059326,59.0191243 484.992025,58.5683594 482.629395,58.5683594 C479.64502,58.5683594 476.629557,59.6564128 473.583008,61.8325195 C470.536458,64.0086263 467.36556,67.1795247 464.070312,71.3452148 L464.070312,126.649414 C464.070312,127.271159 463.883789,127.815186 463.510742,128.281494 C463.137695,128.747803 462.500407,129.136393 461.598877,129.447266 C460.697347,129.758138 459.500488,129.991292 458.008301,130.146729 C456.516113,130.302165 454.619792,130.379883 452.319336,130.379883 C450.01888,130.379883 448.122559,130.302165 446.630371,130.146729 C445.138184,129.991292 443.941325,129.758138 443.039795,129.447266 C442.138265,129.136393 441.500977,128.747803 441.12793,128.281494 C440.754883,127.815186 440.568359,127.271159 440.568359,126.649414 L440.568359,43.4599609 C440.568359,42.8382161 440.723796,42.2941895 441.034668,41.8278809 C441.34554,41.3615723 441.905111,40.9729818 442.713379,40.6621094 C443.521647,40.351237 444.56307,40.1180827 445.837646,39.9626465 C447.112223,39.8072103 448.713216,39.7294922 450.640625,39.7294922 C452.630208,39.7294922 454.277832,39.8072103 455.583496,39.9626465 C456.88916,40.1180827 457.899495,40.351237 458.614502,40.6621094 C459.329508,40.9729818 459.842448,41.3615723 460.15332,41.8278809 C460.464193,42.2941895 460.619629,42.8382161 460.619629,43.4599609 L460.619629,53.065918 C465.22054,48.0919596 469.89917,44.3614909 474.655518,41.8745117 C479.411865,39.3875326 484.37028,38.144043 489.530762,38.144043 C495.188639,38.144043 499.960531,39.0766602 503.846436,40.9418945 C507.73234,42.8071289 510.872152,45.3407389 513.265869,48.5427246 C515.659587,51.7447103 517.384928,55.4907227 518.441895,59.7807617 C519.498861,64.0708008 520.027344,69.2312826 520.027344,75.262207 L520.027344,126.649414 Z" id="Path"></path>
                <path d="M632.780762,83.9355469 C632.780762,91.3343099 631.972493,97.9869792 630.355957,103.893555 C628.739421,109.80013 626.407878,114.836263 623.361328,119.001953 C620.314779,123.167643 616.568766,126.369629 612.123291,128.60791 C607.677816,130.846191 602.626139,131.965332 596.968262,131.965332 C594.17041,131.965332 591.559082,131.70109 589.134277,131.172607 C586.709473,130.644124 584.393473,129.789225 582.186279,128.60791 C579.979085,127.426595 577.802979,125.934408 575.657959,124.131348 C573.512939,122.328288 571.321289,120.152181 569.083008,117.603027 L569.083008,126.649414 C569.083008,127.333333 568.912028,127.908447 568.570068,128.374756 C568.228109,128.841064 567.668538,129.229655 566.891357,129.540527 C566.114176,129.8514 565.072754,130.06901 563.76709,130.193359 C562.461426,130.317708 560.875977,130.379883 559.010742,130.379883 C557.083333,130.379883 555.48234,130.317708 554.207764,130.193359 C552.933187,130.06901 551.907308,129.8514 551.130127,129.540527 C550.352946,129.229655 549.808919,128.841064 549.498047,128.374756 C549.187174,127.908447 549.031738,127.333333 549.031738,126.649414 L549.031738,4.01025391 C549.031738,3.38850911 549.218262,2.8289388 549.591309,2.33154297 C549.964355,1.83414714 550.601644,1.4144694 551.503174,1.07250977 C552.404704,0.73055013 553.601562,0.466308594 555.09375,0.279785156 C556.585938,0.0932617188 558.482259,0 560.782715,0 C563.083171,0 564.979492,0.0932617188 566.47168,0.279785156 C567.963867,0.466308594 569.160726,0.73055013 570.062256,1.07250977 C570.963786,1.4144694 571.601074,1.83414714 571.974121,2.33154297 C572.347168,2.8289388 572.533691,3.38850911 572.533691,4.01025391 L572.533691,49.9882812 C574.647624,47.874349 576.761556,46.0712891 578.875488,44.5791016 C580.989421,43.0869141 583.103353,41.8589681 585.217285,40.8952637 C587.331217,39.9315592 589.507324,39.2320964 591.745605,38.796875 C593.983887,38.3616536 596.346517,38.144043 598.833496,38.144043 C604.98877,38.144043 610.211426,39.3719889 614.501465,41.8278809 C618.791504,44.2837728 622.288818,47.5945638 624.993408,51.7602539 C627.697998,55.925944 629.672038,60.791097 630.915527,66.3557129 C632.159017,71.9203288 632.780762,77.7802734 632.780762,83.9355469 Z M608.439453,85.6142578 C608.439453,82.0703125 608.175212,78.6507161 607.646729,75.3554688 C607.118245,72.0602214 606.201172,69.1380208 604.895508,66.5888672 C603.589844,64.0397135 601.895589,62.0034993 599.812744,60.4802246 C597.729899,58.9569499 595.103027,58.1953125 591.932129,58.1953125 C590.377767,58.1953125 588.854492,58.4129232 587.362305,58.8481445 C585.870117,59.2833659 584.331299,60.0294596 582.74585,61.0864258 C581.1604,62.1433919 579.52832,63.5112305 577.849609,65.1899414 C576.170898,66.8686523 574.398926,68.9514974 572.533691,71.4384766 L572.533691,99.0439453 C575.828939,103.27181 578.984294,106.489339 581.999756,108.696533 C585.015218,110.903727 588.170573,112.007324 591.46582,112.007324 C594.51237,112.007324 597.092611,111.230143 599.206543,109.675781 C601.320475,108.121419 603.076904,106.100749 604.47583,103.61377 C605.874756,101.12679 606.885091,98.2978516 607.506836,95.1269531 C608.128581,91.9560547 608.439453,88.7851562 608.439453,85.6142578 Z" id="Shape"></path>
                <path d="M741.617188,84.215332 C741.617188,91.3032227 740.68457,97.7693685 738.819336,103.61377 C736.954102,109.458171 734.125163,114.494303 730.33252,118.722168 C726.539876,122.950033 721.783529,126.214193 716.063477,128.514648 C710.343424,130.815104 703.659668,131.965332 696.012207,131.965332 C688.613444,131.965332 682.178385,130.939453 676.707031,128.887695 C671.235677,126.835938 666.69694,123.851562 663.09082,119.93457 C659.484701,116.017578 656.811198,111.199056 655.070312,105.479004 C653.329427,99.7589518 652.458984,93.2306315 652.458984,85.894043 C652.458984,78.8061523 653.407145,72.3244629 655.303467,66.4489746 C657.199788,60.5734863 660.044271,55.5373535 663.836914,51.3405762 C667.629557,47.1437988 672.370361,43.8951823 678.059326,41.5947266 C683.748291,39.2942708 690.416504,38.144043 698.063965,38.144043 C705.524902,38.144043 711.991048,39.1543783 717.462402,41.1750488 C722.933757,43.1957194 727.45695,46.1645508 731.031982,50.081543 C734.607015,53.9985352 737.264974,58.8170573 739.005859,64.5371094 C740.746745,70.2571615 741.617188,76.816569 741.617188,84.215332 Z M717.462402,85.1479492 C717.462402,81.0444336 717.135986,77.267334 716.483154,73.8166504 C715.830322,70.3659668 714.726725,67.3660482 713.172363,64.8168945 C711.618001,62.2677409 709.5507,60.2781576 706.970459,58.8481445 C704.390218,57.4181315 701.141602,56.703125 697.224609,56.703125 C693.742839,56.703125 690.696289,57.3404134 688.084961,58.6149902 C685.473633,59.8895671 683.328613,61.7548014 681.649902,64.2106934 C679.971191,66.6665853 678.712158,69.619873 677.872803,73.0705566 C677.033447,76.5212402 676.61377,80.453776 676.61377,84.8681641 C676.61377,88.9716797 676.955729,92.7487793 677.639648,96.1994629 C678.323568,99.6501465 679.427165,102.650065 680.950439,105.199219 C682.473714,107.748372 684.541016,109.722412 687.152344,111.121338 C689.763672,112.520264 692.996745,113.219727 696.851562,113.219727 C700.395508,113.219727 703.473145,112.582438 706.084473,111.307861 C708.695801,110.033285 710.84082,108.183594 712.519531,105.758789 C714.198242,103.333984 715.441732,100.39624 716.25,96.9455566 C717.058268,93.494873 717.462402,89.5623372 717.462402,85.1479492 Z" id="Shape"></path>
                <path d="M834.599121,124.970703 C835.096517,126.027669 835.329671,126.898112 835.298584,127.582031 C835.267497,128.265951 834.816732,128.825521 833.946289,129.260742 C833.075846,129.695964 831.739095,129.991292 829.936035,130.146729 C828.132975,130.302165 825.739258,130.379883 822.754883,130.379883 C819.957031,130.379883 817.703206,130.333252 815.993408,130.23999 C814.28361,130.146729 812.946859,129.960205 811.983154,129.68042 C811.01945,129.400635 810.304443,129.058675 809.838135,128.654541 C809.371826,128.250407 809.014323,127.737467 808.765625,127.115723 L793.377441,97.5517578 L777.989258,127.115723 C777.74056,127.737467 777.3986,128.250407 776.963379,128.654541 C776.528158,129.058675 775.859782,129.400635 774.958252,129.68042 C774.056722,129.960205 772.797689,130.146729 771.181152,130.23999 C769.564616,130.333252 767.450684,130.379883 764.839355,130.379883 C762.103678,130.379883 759.927572,130.302165 758.311035,130.146729 C756.694499,129.991292 755.513184,129.695964 754.76709,129.260742 C754.020996,128.825521 753.632406,128.265951 753.601318,127.582031 C753.570231,126.898112 753.834473,126.027669 754.394043,124.970703 L777.429688,84.0288086 L756.166016,45.6049805 C755.606445,44.4858398 755.311117,43.537679 755.280029,42.760498 C755.248942,41.9833171 755.637533,41.3771159 756.445801,40.9418945 C757.254069,40.5066732 758.544189,40.1958008 760.316162,40.0092773 C762.088135,39.8227539 764.497396,39.7294922 767.543945,39.7294922 C770.279622,39.7294922 772.471273,39.776123 774.118896,39.8693848 C775.76652,39.9626465 777.056641,40.1025391 777.989258,40.2890625 C778.921875,40.4755859 779.605794,40.7709147 780.041016,41.1750488 C780.476237,41.5791829 780.849284,42.0921224 781.160156,42.7138672 L795.98877,70.5058594 L810.724121,42.7138672 C810.910645,42.2164714 811.19043,41.78125 811.563477,41.4082031 C811.936523,41.0351562 812.527181,40.7242839 813.335449,40.4755859 C814.143717,40.226888 815.247314,40.0403646 816.64624,39.9160156 C818.045166,39.7916667 819.957031,39.7294922 822.381836,39.7294922 C825.117513,39.7294922 827.309163,39.7916667 828.956787,39.9160156 C830.604411,40.0403646 831.785726,40.3201497 832.500732,40.7553711 C833.215739,41.1905924 833.557699,41.7967936 833.526611,42.5739746 C833.495524,43.3511556 833.138021,44.3614909 832.454102,45.6049805 L811.75,83.3759766 L834.599121,124.970703 Z" id="Path"></path>
                <path d="M883.654785,116.390625 C883.654785,122.172852 882.64445,126.058757 880.623779,128.04834 C878.603109,130.037923 874.981445,131.032715 869.758789,131.032715 C864.536133,131.032715 860.930013,130.053467 858.94043,128.094971 C856.950846,126.136475 855.956055,122.421549 855.956055,116.950195 C855.956055,111.105794 856.96639,107.188802 858.987061,105.199219 C861.007731,103.209635 864.660482,102.214844 869.945312,102.214844 C875.105794,102.214844 878.680827,103.194092 880.67041,105.152588 C882.659993,107.111084 883.654785,110.857096 883.654785,116.390625 Z" id="Path"></path>
                <path d="M983.911133,126.929199 C983.911133,127.799642 983.60026,128.483561 982.978516,128.980957 C982.356771,129.478353 981.377523,129.835856 980.040771,130.053467 C978.70402,130.271077 976.72998,130.379883 974.118652,130.379883 C971.320801,130.379883 969.284587,130.271077 968.01001,130.053467 C966.735433,129.835856 965.833903,129.478353 965.30542,128.980957 C964.776937,128.483561 964.512695,127.799642 964.512695,126.929199 L964.512695,120.307617 C961.093099,123.975911 957.19165,126.835938 952.80835,128.887695 C948.425049,130.939453 943.559896,131.965332 938.212891,131.965332 C933.798503,131.965332 929.741618,131.390218 926.042236,130.23999 C922.342855,129.089762 919.140869,127.379964 916.436279,125.110596 C913.731689,122.841227 911.633301,120.027832 910.141113,116.67041 C908.648926,113.312988 907.902832,109.395996 907.902832,104.919434 C907.902832,100.069824 908.850993,95.8575033 910.747314,92.2824707 C912.643636,88.7074382 915.472575,85.7541504 919.234131,83.4226074 C922.995687,81.0910645 927.674316,79.3657227 933.27002,78.246582 C938.865723,77.1274414 945.362956,76.5678711 952.761719,76.5678711 L960.875488,76.5678711 L960.875488,71.5317383 C960.875488,68.9204102 960.611247,66.635498 960.082764,64.677002 C959.554281,62.7185059 958.683838,61.0864258 957.471436,59.7807617 C956.259033,58.4750977 954.642497,57.5113932 952.621826,56.8896484 C950.601156,56.2679036 948.098633,55.9570312 945.114258,55.9570312 C941.197266,55.9570312 937.699951,56.3922526 934.622314,57.2626953 C931.544678,58.133138 928.824544,59.0968424 926.461914,60.1538086 C924.099284,61.2107747 922.125244,62.1744792 920.539795,63.0449219 C918.954346,63.9153646 917.664225,64.3505859 916.669434,64.3505859 C915.985514,64.3505859 915.379313,64.1329753 914.85083,63.6977539 C914.322347,63.2625326 913.887126,62.6407878 913.545166,61.8325195 C913.203206,61.0242513 912.938965,60.0294596 912.752441,58.8481445 C912.565918,57.6668294 912.472656,56.3611654 912.472656,54.9311523 C912.472656,53.0037435 912.628092,51.4804688 912.938965,50.3613281 C913.249837,49.2421875 913.840495,48.2318522 914.710938,47.3303223 C915.58138,46.4287923 917.104655,45.4340007 919.280762,44.3459473 C921.456868,43.2578939 924.006022,42.2475586 926.928223,41.3149414 C929.850423,40.3823242 933.036865,39.6206868 936.487549,39.0300293 C939.938232,38.4393717 943.497721,38.144043 947.166016,38.144043 C953.694336,38.144043 959.274495,38.7813314 963.906494,40.0559082 C968.538493,41.330485 972.34668,43.2889811 975.331055,45.9313965 C978.31543,48.5738118 980.491536,51.9778646 981.859375,56.1435547 C983.227214,60.3092448 983.911133,65.2521159 983.911133,70.972168 L983.911133,126.929199 Z M960.875488,91.3032227 L951.922363,91.3032227 C948.12972,91.3032227 944.896647,91.5830078 942.223145,92.1425781 C939.549642,92.7021484 937.373535,93.5415039 935.694824,94.6606445 C934.016113,95.7797852 932.788167,97.1320801 932.010986,98.7175293 C931.233805,100.302979 930.845215,102.121582 930.845215,104.17334 C930.845215,107.655111 931.948812,110.390788 934.156006,112.380371 C936.3632,114.369954 939.425293,115.364746 943.342285,115.364746 C946.637533,115.364746 949.668538,114.525391 952.435303,112.84668 C955.202067,111.167969 958.015462,108.712077 960.875488,105.479004 L960.875488,91.3032227 Z" id="Shape"></path>
                <path d="M1036.79053,126.649414 C1036.79053,127.271159 1036.604,127.815186 1036.23096,128.281494 C1035.85791,128.747803 1035.22062,129.136393 1034.31909,129.447266 C1033.41756,129.758138 1032.2207,129.991292 1030.72852,130.146729 C1029.23633,130.302165 1027.34001,130.379883 1025.03955,130.379883 C1022.7391,130.379883 1020.84277,130.302165 1019.35059,130.146729 C1017.8584,129.991292 1016.66154,129.758138 1015.76001,129.447266 C1014.85848,129.136393 1014.22119,128.747803 1013.84814,128.281494 C1013.4751,127.815186 1013.28857,127.271159 1013.28857,126.649414 L1013.28857,43.6464844 C1013.28857,43.0247396 1013.4751,42.4807129 1013.84814,42.0144043 C1014.22119,41.5480957 1014.85848,41.1439616 1015.76001,40.802002 C1016.66154,40.4600423 1017.8584,40.1958008 1019.35059,40.0092773 C1020.84277,39.8227539 1022.7391,39.7294922 1025.03955,39.7294922 C1027.34001,39.7294922 1029.23633,39.8227539 1030.72852,40.0092773 C1032.2207,40.1958008 1033.41756,40.4600423 1034.31909,40.802002 C1035.22062,41.1439616 1035.85791,41.5480957 1036.23096,42.0144043 C1036.604,42.4807129 1036.79053,43.0247396 1036.79053,43.6464844 L1036.79053,126.649414 Z M1038.5625,15.2949219 C1038.5625,20.0201823 1037.5988,23.2843424 1035.67139,25.0874023 C1033.74398,26.8904622 1030.16895,27.7919922 1024.94629,27.7919922 C1019.66146,27.7919922 1016.10197,26.9215495 1014.26782,25.1806641 C1012.43368,23.4397786 1011.5166,20.2999674 1011.5166,15.7612305 C1011.5166,11.0359701 1012.46476,7.75626628 1014.36108,5.92211914 C1016.25741,4.08797201 1019.84798,3.17089844 1025.13281,3.17089844 C1030.35547,3.17089844 1033.89941,4.05688477 1035.76465,5.82885742 C1037.62988,7.60083008 1038.5625,10.7561849 1038.5625,15.2949219 Z" id="Shape"></path>
            </g>
        </g>
    </g>
</svg>